<?xml version="1.0" standalone="no"?>
<!DOCTYPE svg PUBLIC "-//W3C//DTD SVG 1.1//EN" "http://www.w3.org/Graphics/SVG/1.1/DTD/svg11.dtd" >
<svg xmlns="http://www.w3.org/2000/svg">
<metadata></metadata>
<defs>
<font id="san_francisco_displaymedium" horiz-adv-x="1211" >
<font-face units-per-em="2048" ascent="1638" descent="-410" />
<missing-glyph horiz-adv-x="443" />
<glyph horiz-adv-x="0" />
<glyph unicode="&#xd;" horiz-adv-x="0" />
<glyph unicode=" "  horiz-adv-x="443" />
<glyph unicode="&#x09;" horiz-adv-x="443" />
<glyph unicode="&#xa0;" horiz-adv-x="443" />
<glyph unicode="!" horiz-adv-x="574" d="M146 110q0 60 39.5 98t101.5 38q65 0 104.5 -37.5t39.5 -98.5q0 -56 -39.5 -92.5t-104.5 -36.5q-60 0 -100.5 36.5t-40.5 92.5zM169 1486h245l-27 -1041h-193z" />
<glyph unicode="&#x22;" horiz-adv-x="924" d="M112 1486h244l-31 -562h-179zM570 1486h242l-32 -562h-179z" />
<glyph unicode="#" horiz-adv-x="1309" d="M58 416l34 169h220l67 329h-208l31 168h212l79 404h175l-83 -404h295l79 404h173l-81 -404h233l-33 -168h-233l-69 -329h223l-34 -169h-224l-84 -416h-172l85 416h-291l-86 -416h-172l83 416h-219zM475 577h308l70 345h-308z" />
<glyph unicode="$" d="M67 414h201q6 -98 75 -162.5t192 -80.5v514l-83 21q-152 37 -250 131.5t-98 255.5q0 181 119.5 287t311.5 125v141h150v-141q187 -19 307.5 -126t127.5 -280h-196q-4 89 -68.5 153.5t-172.5 79.5v-485l87 -21q183 -46 279 -139.5t96 -261.5q0 -96 -34.5 -174t-97 -130 t-145.5 -83.5t-185 -39.5v-137h-148v135q-227 19 -346.5 136.5t-121.5 281.5zM304 1107q0 -139 175 -204q37 -15 56 -18v447q-50 -6 -91.5 -24t-73 -45t-49 -66.5t-17.5 -89.5zM683 171q121 8 191.5 70.5t70.5 168.5q0 42 -11.5 75t-37.5 62.5t-71 53t-109 42.5 q-4 2 -10.5 3t-11.5 2t-11 3v-480z" />
<glyph unicode="%" horiz-adv-x="1517" d="M15 1107v31q0 154 84 258.5t224 104.5q142 0 225 -104.5t83 -260.5v-31q0 -154 -83.5 -259t-226.5 -105q-142 0 -224 104t-82 262zM98 0l581 758l555 728h181l-576 -751l-560 -735h-181zM169 1120q0 -110 40.5 -176t113.5 -66t114.5 64.5t41.5 173.5v10 q0 108 -40.5 172.5t-115.5 64.5t-114.5 -65.5t-39.5 -169.5v-8zM889 356v29q0 154 83 258t224.5 104t225 -104t83.5 -260v-31q0 -154 -83.5 -259t-228.5 -105q-142 0 -223 104t-81 264zM1041 366q0 -110 40.5 -175.5t113.5 -65.5t114.5 64.5t41.5 174.5v9q0 71 -18 123.5 t-53 83t-83 30.5q-75 0 -115.5 -65.5t-40.5 -169.5v-9z" />
<glyph unicode="&#x26;" horiz-adv-x="1431" d="M85 389q0 137 75 234t210 172q46 25 59 29q-89 94 -136 172t-47 170q0 142 110 237.5t277 95.5q164 0 275.5 -93t111.5 -240q0 -67 -24 -124.5t-71 -103t-97 -80t-120 -71.5l339 -371q65 121 64 375v52h194v-58q0 -327 -121 -508l263 -277h-263l-129 137 q-191 -167 -468 -166q-219 0 -360.5 113.5t-141.5 304.5zM296 406q0 -65 26 -116t69.5 -83t98.5 -47.5t118 -15.5q87 0 176.5 31t147.5 96l-393 430q-4 -2 -21 -10t-25 -12q-62 -35 -103.5 -72t-67.5 -88t-26 -113zM445 1153q0 -56 33.5 -112.5t118.5 -139.5 q112 56 168.5 113.5t56.5 142.5q0 81 -53 131t-134 50q-83 0 -136.5 -52t-53.5 -133z" />
<glyph unicode="'" horiz-adv-x="468" d="M112 1486h244l-31 -562h-179z" />
<glyph unicode="(" horiz-adv-x="690" d="M137 616q0 137 19 259t45 205t68.5 165.5t75 129.5t82.5 109h189q-40 -44 -78 -113.5t-82 -175.5t-70 -258t-26 -319q0 -135 19 -262t41.5 -211.5t64.5 -180t64.5 -137t62.5 -112.5h-198q-277 341 -277 901z" />
<glyph unicode=")" horiz-adv-x="690" d="M75 1484h189q48 -62 81.5 -109t76 -129.5t68.5 -165.5t45 -205t19 -259q0 -556 -281 -901h-196q31 52 44.5 77t46 88.5t49 110t41.5 123.5t38.5 148t23 164.5t9.5 191.5q0 135 -18 262t-46 220t-64.5 173t-66.5 129t-59 82z" />
<glyph unicode="*" horiz-adv-x="813" d="M75 1047l233 114l-233 113l69 118l214 -147l-17 260h134l-19 -260l216 147l67 -116l-233 -115l233 -114l-67 -117l-216 144l19 -258h-134l17 258l-214 -144z" />
<glyph unicode="+" d="M77 502v183h437v456h185v-456h439v-183h-439v-477h-185v477h-437z" />
<glyph unicode="," horiz-adv-x="474" d="M25 -256l119 483h226l-185 -483h-160z" />
<glyph unicode="-" horiz-adv-x="855" d="M85 512v196h685v-196h-685z" />
<glyph unicode="." horiz-adv-x="543" d="M135 114q0 58 39.5 97t96.5 39q60 0 99.5 -38.5t39.5 -97t-39.5 -97t-99.5 -38.5q-56 0 -96 38.5t-40 96.5z" />
<glyph unicode="/" horiz-adv-x="749" d="M12 -329l533 1894h196l-533 -1894h-196z" />
<glyph unicode="0" horiz-adv-x="1269" d="M100 687v110q0 333 140.5 526.5t396.5 193.5t395.5 -193.5t139.5 -526.5v-110q0 -329 -139.5 -523.5t-397.5 -194.5q-256 0 -395.5 192.5t-139.5 525.5zM323 689q0 -254 83 -391.5t229 -137.5q148 0 231 137.5t83 391.5v108q0 252 -83 390.5t-231 138.5 q-146 0 -229 -138.5t-83 -390.5v-108z" />
<glyph unicode="1" horiz-adv-x="888" d="M112 1034v227q179 127 365 225h212v-1486h-223v1253h-6q-48 -27 -165.5 -101t-182.5 -118z" />
<glyph unicode="2" horiz-adv-x="1215" d="M119 1066v8q0 181 128 312t352 131q214 0 345.5 -116.5t131.5 -295.5q0 -27 -4 -55t-8.5 -50t-18 -51t-19.5 -44.5t-28 -47t-28 -43t-34.5 -45.5t-35.5 -41.5t-40.5 -46t-39.5 -46.5l-379 -439v-5h662v-191h-972v139l550 627q54 58 83 96.5t58 102t29 124.5q0 71 -33 126 t-91.5 85t-131.5 30q-119 0 -189.5 -75t-70.5 -181v-2v-6h-216z" />
<glyph unicode="3" horiz-adv-x="1240" d="M96 393h208q15 -106 90.5 -172.5t209.5 -66.5q146 0 229 74t81 190q-2 58 -23 105t-60.5 80.5t-98 52t-131.5 18.5h-154v186h146q121 0 196 67.5t75 173.5q-2 102 -73 166.5t-190 64.5q-62 0 -112 -20t-80 -54t-47 -72.5t-21 -82.5h-212q4 171 130 292.5t347 121.5 q210 0 343 -108t137 -273q4 -146 -82 -243.5t-186 -112.5v-6q52 -4 105 -28t102 -65.5t81 -111t35 -155.5q2 -194 -153 -319.5t-391 -125.5q-237 0 -366 120.5t-135 303.5z" />
<glyph unicode="4" horiz-adv-x="1280" d="M92 298v187q52 96 111 197t124.5 207t121 193.5t131 208t121.5 195.5h325v-999h189v-189h-189v-298h-212v298h-722zM308 487h506v816h-6q-298 -454 -500 -814v-2z" />
<glyph unicode="5" horiz-adv-x="1298" d="M139 383h213q17 -108 98 -167.5t206 -59.5q121 0 216.5 88.5t95.5 238.5q0 146 -88.5 234t-221.5 88q-81 0 -147 -29t-101 -67.5t-58 -88.5h-194l79 868h843v-189h-660l-45 -439h6q33 46 120.5 86.5t199.5 40.5q204 0 348 -138.5t144 -359.5q0 -231 -156.5 -375.5 t-391.5 -144.5q-229 0 -362.5 118.5t-143.5 295.5z" />
<glyph unicode="6" horiz-adv-x="1244" d="M96 693q0 117 13.5 219t39.5 184t64.5 149.5t86.5 117.5t104 83.5t121.5 50t136.5 16.5q83 0 156 -22t126 -59.5t92.5 -86t61.5 -103t26 -108.5h-219q-6 71 -73.5 132.5t-177.5 61.5q-148 0 -243 -147t-101 -430h6q35 87 132 153t233 66q92 0 178 -33.5t153.5 -92.5 t109 -154t41.5 -207q0 -158 -70.5 -276t-187 -177t-262.5 -59q-254 0 -400.5 183t-146.5 539zM339 470.5q0 -147.5 89.5 -231t216.5 -83.5q79 0 145.5 33.5t110.5 106t44 174.5q0 150 -88.5 233.5t-213.5 83.5q-129 0 -216.5 -84.5t-87.5 -232z" />
<glyph unicode="7" horiz-adv-x="1182" d="M98 1295v191h968v-198l-606 -1288h-235l624 1290v5h-751z" />
<glyph unicode="8" horiz-adv-x="1292" d="M106 406q0 83 29 153t76 113.5t97 70.5t102 40v4q-60 19 -112 57t-91.5 112t-39.5 164q0 173 135 285t345 112q139 0 249.5 -51t172 -141.5t61.5 -204.5q0 -133 -74 -218.5t-171 -114.5v-4q52 -12 101.5 -39.5t96.5 -72.5t76 -113.5t29 -149.5q0 -194 -153 -316.5 t-392 -122.5t-388 121.5t-149 315.5zM327 416q0 -119 91.5 -194.5t228.5 -75.5q92 0 165 34t114.5 95.5t41.5 140.5q0 81 -41.5 143.5t-114.5 97t-165 34.5q-137 0 -228.5 -77t-91.5 -198zM381 1101q0 -106 76 -173.5t190 -67.5q58 0 107 17.5t84.5 49.5t55.5 77t20 97 q0 106 -75 171.5t-192 65.5t-191.5 -65.5t-74.5 -171.5z" />
<glyph unicode="9" horiz-adv-x="1244" d="M98 1007q0 154 73 272t187 177t250 59q264 0 411 -181t147 -566q0 -375 -150 -585t-419 -210q-114 0 -206.5 36.5t-150 94.5t-90 126.5t-38.5 137.5h219q10 -83 83 -146.5t192 -63.5q167 0 256 157t87 420h-10q-31 -92 -130 -155.5t-247 -63.5q-121 0 -225 54 t-171.5 168.5t-67.5 268.5zM316 1012.5q0 -150.5 85.5 -233t212.5 -82.5t217.5 88.5t90.5 221.5q0 154 -85.5 238.5t-216.5 84.5q-127 0 -215.5 -83.5t-88.5 -234z" />
<glyph unicode=":" horiz-adv-x="582" d="M152 114q0 58 39.5 97t95.5 39q60 0 100 -38.5t40 -98t-39.5 -97t-100.5 -37.5q-37 0 -67.5 16.5t-49 47.5t-18.5 71zM152 885q0 58 39.5 96.5t95.5 38.5q60 0 100 -38.5t40 -98t-39.5 -97t-100.5 -37.5q-37 0 -67.5 17t-49 48t-18.5 71z" />
<glyph unicode=";" horiz-adv-x="582" d="M60 -277l117 483h227l-181 -483h-163zM154 885q0 58 39.5 96.5t95.5 38.5q60 0 100 -38.5t40 -98t-39.5 -97t-100.5 -37.5q-56 0 -95.5 39t-39.5 97z" />
<glyph unicode="&#x3c;" d="M129 479v164l953 560v-227l-714 -402v-12l714 -381v-227z" />
<glyph unicode="=" d="M135 298v177h943v-177h-943zM135 716v177h943v-177h-943z" />
<glyph unicode="&#x3e;" d="M129 -46v227l714 381v12l-714 402v227l953 -560v-164z" />
<glyph unicode="?" horiz-adv-x="1040" d="M65 1089q-2 117 38.5 204t110 134t147.5 69.5t166 22.5q189 0 319 -98.5t130 -279.5q0 -67 -16.5 -120t-52 -98t-64.5 -71t-79 -65q-104 -81 -137.5 -126t-33.5 -132v-63h-208l-2 86q-2 106 51 183t153 154q48 37 70 56t49 49t36 62.5t9 71.5q0 71 -33 120t-85 68.5 t-117 19.5q-48 0 -88.5 -12.5t-68.5 -34t-48 -53t-30 -69t-10 -78.5h-206zM352 110q0 40 18.5 71t50 48t70.5 17q33 0 60.5 -10.5t46 -27.5t29 -41.5t10.5 -56.5q0 -56 -40.5 -92.5t-105.5 -36.5q-58 0 -98.5 36.5t-40.5 92.5z" />
<glyph unicode="@" horiz-adv-x="1829" d="M100 529v62q0 187 63.5 345.5t175 265.5t266.5 167.5t334 60.5h8q187 0 341 -61.5t252 -164.5t151 -234t53 -277v-54q0 -223 -105 -358t-274 -135q-106 0 -173.5 44.5t-82.5 107.5h-10q-17 -60 -84.5 -106t-157.5 -46q-137 0 -213 96.5t-76 259.5v106q0 158 78 254.5 t218 96.5q89 0 146.5 -43.5t73.5 -99.5h9v127h168v-533q0 -31 9.5 -55t27 -39.5t40.5 -23t50 -7.5q83 0 140.5 93.5t57.5 272.5v38q0 94 -27 182t-81 163t-130 131.5t-179 87.5t-222 31h-8q-293 0 -484 -190.5t-191 -508.5v-50q0 -169 53 -301t146 -214t211.5 -125 t255.5 -43h9q223 0 343 54v-147q-108 -50 -345 -50h-11q-173 0 -322.5 52t-262 153t-177 259t-64.5 356zM745 527q0 -231 171 -231q77 0 122.5 53t45.5 167v88q0 69 -22.5 117.5t-61 72.5t-86.5 24q-75 0 -122 -57.5t-47 -167.5v-66z" />
<glyph unicode="A" horiz-adv-x="1325" d="M23 0l518 1486h244l518 -1486h-242l-137 427h-535l-139 -427h-227zM443 599h427l-208 644h-8z" />
<glyph unicode="B" horiz-adv-x="1342" d="M173 0v1486h576q191 0 307 -98t116 -268q0 -131 -66.5 -213.5t-177.5 -113.5v-10q150 -19 237.5 -116t87.5 -251q0 -198 -143.5 -307t-374.5 -109h-562zM395 183h246q89 0 155 10.5t120 36.5t81 74t27 119q0 125 -79 189t-219 64h-331v-493zM395 853h217q169 0 252 55.5 t83 173.5q0 110 -65.5 165.5t-175.5 55.5h-311v-450z" />
<glyph unicode="C" horiz-adv-x="1369" d="M112 645v190q0 325 159.5 503.5t436.5 178.5q131 0 240 -43.5t177 -115.5t105.5 -162.5t37.5 -188.5v-10h-219q0 129 -91.5 226t-247.5 97q-112 0 -194.5 -52.5t-130.5 -163.5t-48 -271v-188q0 -241 100 -359.5t277 -118.5q106 0 183 41.5t114.5 109t37.5 148.5h219v-10 q0 -71 -22 -138.5t-68 -131t-110.5 -111.5t-158 -77t-203.5 -29q-277 0 -435.5 174.5t-158.5 501.5z" />
<glyph unicode="D" horiz-adv-x="1417" d="M173 0v1486h497q175 0 304 -54t205 -155t112.5 -233t36.5 -299t-35.5 -299t-111.5 -234t-205 -157t-306 -55h-497zM395 194h254q225 0 335.5 135t110.5 412q0 554 -446 554h-254v-1101z" />
<glyph unicode="E" horiz-adv-x="1205" d="M173 0v1486h911v-194h-689v-443h650v-185h-650v-470h689v-194h-911z" />
<glyph unicode="F" horiz-adv-x="1134" d="M173 0v1486h899v-194h-677v-476h621v-192h-621v-624h-222z" />
<glyph unicode="G" horiz-adv-x="1396" d="M112 647v200q0 206 75 358t212.5 232t320.5 80q131 0 236 -40.5t174 -109t107.5 -156t44.5 -185.5h-223q-10 98 -60 165.5t-122 98t-161 30.5q-169 0 -274 -118t-105 -357v-198q0 -227 96 -353.5t281 -126.5q156 0 255 86t99 219v127h-358v186h574v-304 q0 -67 -17.5 -134.5t-60.5 -136t-105 -122t-163 -86.5t-224 -33q-296 0 -449 182t-153 496z" />
<glyph unicode="H" horiz-adv-x="1498" d="M173 0v1486h222v-622h708v622h225v-1486h-225v670h-708v-670h-222z" />
<glyph unicode="I" horiz-adv-x="566" d="M173 0v1486h222v-1486h-222z" />
<glyph unicode="J" horiz-adv-x="1084" d="M27 368h219q0 -46 18.5 -83t47.5 -62t67.5 -37.5t80.5 -12.5q110 0 172.5 62.5t62.5 195.5v1055h227v-1041q0 -235 -125 -355.5t-335 -120.5q-200 0 -317.5 112t-117.5 287z" />
<glyph unicode="K" horiz-adv-x="1315" d="M173 0v1486h222v-701h11l618 701h258l-547 -635l574 -851h-279l-460 697l-175 -189v-508h-222z" />
<glyph unicode="L" horiz-adv-x="1086" d="M173 0v1486h222v-1288h669v-198h-891z" />
<glyph unicode="M" horiz-adv-x="1739" d="M177 0v1486h221l470 -1086h6l468 1086h223v-1486h-202v1049h-8l-400 -903h-170l-400 903h-6v-1049h-202z" />
<glyph unicode="N" horiz-adv-x="1488" d="M173 0v1486h202l718 -1103h6v1103h218v-1486h-204l-718 1105h-6v-1105h-216z" />
<glyph unicode="O" horiz-adv-x="1440" d="M112 631v210q0 314 164.5 495t445.5 181q185 0 322.5 -81t211.5 -234t74 -361v-210q0 -312 -164.5 -487t-446.5 -175t-444.5 175t-162.5 487zM337 631q0 -229 105 -346.5t278 -117.5q171 0 277 117.5t106 346.5v212q0 229 -106 354t-277 125q-110 0 -195.5 -53.5 t-136.5 -162.5t-51 -263v-212z" />
<glyph unicode="P" horiz-adv-x="1267" d="M173 0v1486h558q219 0 350.5 -131t131.5 -343q0 -210 -132 -340.5t-353 -130.5h-333v-541h-222zM395 728h209q96 0 161 12.5t117.5 44t76 87.5t23.5 140q0 69 -18.5 121.5t-54 89t-88.5 55.5t-120 19h-306v-569z" />
<glyph unicode="Q" horiz-adv-x="1444" d="M112 639v206q0 314 164.5 493t443.5 179q281 0 445.5 -179t164.5 -493v-206q0 -339 -194 -518l200 -281h-239l-129 177q-112 -48 -248 -48q-279 0 -443.5 178t-164.5 492zM335 639q0 -233 106 -356t277 -125q77 0 135 25l-179 246h236l97 -133q100 125 100 343v206 q0 231 -107 354t-280 123q-110 0 -196.5 -51t-137.5 -160.5t-51 -265.5v-206z" />
<glyph unicode="R" horiz-adv-x="1336" d="M173 0v1486h553q241 0 367.5 -128t126.5 -324q0 -167 -81.5 -270.5t-193.5 -143.5l302 -620h-254l-271 579h-329v-579h-220zM393 764h298q144 0 220 67.5t76 192.5q0 133 -78.5 204t-211.5 71h-304v-535z" />
<glyph unicode="S" horiz-adv-x="1275" d="M65 408h222q10 -106 100 -177t246 -71q150 0 235 65.5t85 178.5q0 85 -57 138t-180 82l-252 65q-156 37 -256 134t-100 261q0 102 43 186.5t116.5 137.5t168.5 82t199 29q106 0 198.5 -28t165.5 -80t116.5 -135t45.5 -185h-216q-10 106 -90.5 173.5t-221.5 67.5 q-135 0 -217.5 -61.5t-82.5 -169.5q0 -158 208 -208l248 -63q187 -46 289 -140.5t102 -269.5q0 -212 -157 -331.5t-409 -119.5q-146 0 -255 40.5t-170.5 106t-91.5 139.5t-32 153z" />
<glyph unicode="T" horiz-adv-x="1146" d="M19 1290v196h1109v-196h-443v-1290h-223v1290h-443z" />
<glyph unicode="U" horiz-adv-x="1458" d="M154 520v966h225v-959q0 -167 94.5 -263.5t254.5 -96.5q162 0 258 96.5t96 263.5v959h223v-970q0 -246 -158 -396.5t-419 -150.5q-256 0 -415 152t-159 399z" />
<glyph unicode="V" horiz-adv-x="1321" d="M15 1486h258l389 -1213h8l385 1213h252l-522 -1486h-248z" />
<glyph unicode="W" horiz-adv-x="1848" d="M12 1486h254l258 -1128h9l283 1128h216l283 -1128h9l260 1128h252l-404 -1486h-204l-300 1122h-8l-300 -1122h-204z" />
<glyph unicode="X" horiz-adv-x="1244" d="M4 0l477 749l-471 737h267l352 -572h12l348 572h256l-485 -749l476 -737h-264l-352 568h-12l-356 -568h-248z" />
<glyph unicode="Y" horiz-adv-x="1205" d="M-6 1486h254l351 -649h9l356 649h247l-497 -868v-618h-223v616z" />
<glyph unicode="Z" horiz-adv-x="1257" d="M89 0v154l773 1132v6h-748v194h1022v-152l-766 -1134v-6h785v-194h-1066z" />
<glyph unicode="[" horiz-adv-x="726" d="M137 -248v1734h506v-162h-295v-1409h308v-163h-519z" />
<glyph unicode="\" horiz-adv-x="749" d="M12 1565h196l533 -1894h-196z" />
<glyph unicode="]" horiz-adv-x="726" d="M73 -85h308v1409h-296v162h504v-1734h-516v163z" />
<glyph unicode="^" horiz-adv-x="863" d="M48 866l285 620h202l283 -620h-189l-192 443h-8l-196 -443h-185z" />
<glyph unicode="_" horiz-adv-x="919" d="M-31 -112h982v-171h-982v171z" />
<glyph unicode="`" horiz-adv-x="1028" d="M204 1623h227l210 -299h-179z" />
<glyph unicode="a" horiz-adv-x="1165" d="M96 329q0 102 45.5 177t137 117.5t221.5 42.5h295v127q0 191 -223 191q-204 0 -222 -172h-213q4 77 32.5 140.5t80.5 112t136 75t195 26.5q204 0 319.5 -91t115.5 -284v-791h-211v150h-8q-44 -75 -126 -122t-201 -47q-169 0 -271.5 95t-102.5 253zM318 339 q0 -89 62.5 -136t154.5 -47q110 0 185 66.5t75 166.5v121h-264q-106 0 -159.5 -46t-53.5 -125z" />
<glyph unicode="b" horiz-adv-x="1267" d="M160 0v1565h221v-578h6q98 179 335 179q210 0 327 -143t117 -384v-127q0 -252 -119 -390.5t-331 -138.5q-129 0 -215.5 53t-119.5 139h-8v-175h-213zM381 512q0 -146 73 -244.5t210 -98.5q127 0 202 91.5t75 261.5v98q0 173 -73 267.5t-204 94.5q-65 0 -118 -26 t-89.5 -72.5t-56 -111t-19.5 -139.5v-121z" />
<glyph unicode="c" horiz-adv-x="1132" d="M104 514v125q0 152 55 270.5t167.5 188.5t264.5 70q206 0 327 -109.5t123 -261.5h-211q-6 46 -32 86.5t-80 70.5t-123 30q-133 0 -202.5 -98.5t-69.5 -252.5v-119q0 -152 72.5 -247.5t199.5 -95.5q106 0 165.5 45.5t76.5 118.5h210q-4 -148 -129 -251t-327 -103 q-154 0 -265.5 68t-166.5 187.5t-55 277.5z" />
<glyph unicode="d" horiz-adv-x="1269" d="M104 506v137q0 237 116.5 380t328.5 143q129 0 215.5 -50t117.5 -129h7v578h218v-1565h-212v175h-6q-23 -79 -114.5 -135.5t-225.5 -56.5q-142 0 -242.5 65.5t-151.5 182.5t-51 275zM327 535q0 -171 71.5 -269.5t209.5 -98.5q133 0 207 95.5t74 270.5v89q0 167 -76 262.5 t-209 95.5q-92 0 -154.5 -46.5t-92.5 -128t-30 -189.5v-81z" />
<glyph unicode="e" horiz-adv-x="1169" d="M104 520v100q0 248 127 398t358 150q233 0 358 -149t125 -397v-100h-749v-33q0 -137 70.5 -232t207.5 -95q106 0 164.5 46t73.5 115h218q-8 -60 -37 -116.5t-80 -109.5t-138.5 -84.5t-197.5 -31.5q-241 0 -370.5 146t-129.5 393zM323 683h532v4q0 135 -71.5 218.5 t-194.5 83.5t-194.5 -84.5t-71.5 -217.5v-4z" />
<glyph unicode="f" horiz-adv-x="761" d="M69 966v177h164v114q0 167 87.5 245t272.5 78q35 0 98 -7v-170q-50 4 -65 4q-92 0 -134 -36.5t-42 -130.5v-97h222v-177h-218v-966h-221v966h-164z" />
<glyph unicode="g" horiz-adv-x="1234" d="M92 514v144q0 152 58 267.5t160 178t233 62.5q244 0 331 -179h6v160h215v-1124q0 -229 -141.5 -340.5t-374.5 -111.5q-223 0 -339.5 98t-122.5 242h220q10 -69 73 -115t175 -46q144 0 217.5 71t73.5 204v166h-8q-23 -50 -69 -90.5t-113.5 -64.5t-146.5 -24 q-194 0 -320.5 135.5t-126.5 366.5zM314 529q0 -158 80.5 -248t209.5 -90q127 0 198.5 93t71.5 234v115q0 152 -74 250.5t-199 98.5q-87 0 -152.5 -42.5t-100 -121.5t-34.5 -187v-102z" />
<glyph unicode="h" horiz-adv-x="1280" d="M162 0v1565h221v-572h8q12 29 37.5 58t63 56t94.5 43t124 16q125 0 220.5 -56.5t146.5 -157.5t51 -232v-720h-218v672q0 139 -68 219.5t-191 80.5q-127 0 -197.5 -78t-70.5 -222v-672h-221z" />
<glyph unicode="i" horiz-adv-x="586" d="M158 1429q0 55 38.5 90.5t96.5 35.5q60 0 99 -35.5t39 -90.5t-38.5 -91.5t-99.5 -36.5q-58 0 -96.5 36.5t-38.5 91.5zM185 0v1147h219v-1147h-219z" />
<glyph unicode="j" horiz-adv-x="586" d="M-40 -227q27 -6 69 -6q83 0 119.5 49t36.5 157v1174h219v-1176q0 -377 -333 -377q-73 0 -111 11v168zM158 1429q0 55 38.5 90.5t96.5 35.5q60 0 99 -35.5t39 -90.5t-38.5 -91.5t-99.5 -36.5q-58 0 -96.5 36.5t-38.5 91.5z" />
<glyph unicode="k" horiz-adv-x="1132" d="M160 0v1565h221v-924h10l442 506h251l-441 -498l470 -649h-260l-372 518l-100 -102v-416h-221z" />
<glyph unicode="l" horiz-adv-x="551" d="M167 0v1565h218v-1565h-218z" />
<glyph unicode="m" horiz-adv-x="1902" d="M158 0v1147h217v-148h12q29 69 106 118t188 49q258 0 326 -188h11q21 50 66.5 91.5t119.5 69t165 27.5q119 0 205.5 -47t131 -133.5t44.5 -202.5v-783h-218v731q0 112 -60.5 177.5t-170.5 65.5q-112 0 -174.5 -70.5t-62.5 -187.5v-716h-217v716q0 127 -62.5 192.5 t-172.5 65.5q-65 0 -118 -28t-84 -87.5t-31 -140.5v-718h-221z" />
<glyph unicode="n" horiz-adv-x="1273" d="M158 0v1147h217v-154h8q33 71 120.5 122t210.5 51q177 0 292.5 -106.5t115.5 -297.5v-762h-221v687q0 285 -258 285q-85 0 -143.5 -33.5t-89.5 -99t-31 -160.5v-679h-221z" />
<glyph unicode="o" horiz-adv-x="1213" d="M104 531v87q0 246 129 398t375 152q248 0 375.5 -149t127.5 -399v-89q0 -254 -128 -402t-375 -148q-250 0 -377 147t-127 403zM323 543q0 -62 8 -116t29 -104t53 -84.5t81 -55.5t114 -21q281 0 281 381v63q0 62 -8.5 116t-29.5 104t-52 84.5t-80 55.5t-111 21 q-79 0 -136.5 -31.5t-88.5 -85.5t-45.5 -119.5t-14.5 -144.5v-63z" />
<glyph unicode="p" horiz-adv-x="1265" d="M160 -393v1542h213v-162h8q35 81 123.5 130t219.5 49q198 0 317.5 -137.5t119.5 -381.5v-147q0 -162 -55 -280t-155 -177.5t-233 -59.5q-239 0 -331 173h-6v-549h-221zM381 512q0 -148 76 -245.5t207 -97.5q60 0 110 21.5t87.5 65.5t57.5 111.5t20 154.5v104 q0 85 -20 152t-55.5 112t-87.5 68.5t-116 23.5q-129 0 -204 -93.5t-75 -245.5v-131z" />
<glyph unicode="q" horiz-adv-x="1265" d="M104 500v151q0 235 120.5 375t324.5 140q127 0 212.5 -48t125.5 -131h6v160h212v-1540h-218v549h-9q-35 -77 -122.5 -125t-210.5 -48q-206 0 -323.5 138.5t-117.5 378.5zM327 520q0 -110 33 -190t96.5 -121.5t151.5 -41.5q133 0 206 98.5t73 250.5v113q0 164 -75 257.5 t-206 93.5q-89 0 -152 -42.5t-95 -120.5t-32 -191v-106z" />
<glyph unicode="r" horiz-adv-x="786" d="M175 0v1147h218v-142h9q15 33 31.5 56t47.5 49t82 41t118 15q40 0 77 -7v-197q-31 8 -100 8q-260 0 -260 -273v-697h-223z" />
<glyph unicode="s" horiz-adv-x="1086" d="M85 314h215q10 -77 70.5 -121.5t164.5 -44.5q123 0 182 46.5t59 121.5q0 31 -8 54t-32 41t-42 28.5t-61.5 21.5t-64.5 16.5t-79 15.5q-73 15 -122 28.5t-103 39.5t-85 57t-52 82t-21 116q0 119 63.5 200t159.5 116.5t214 35.5q198 0 308.5 -97t110.5 -251h-200 q-4 35 -16.5 64.5t-36.5 57.5t-69 44.5t-103 16.5q-98 0 -158.5 -44.5t-60.5 -121.5q0 -35 17 -62.5t37.5 -43t62.5 -29t67 -18.5t75 -14q21 -4 29 -4q89 -17 152.5 -37.5t120 -56t85.5 -92.5t29 -137q0 -171 -126 -266.5t-340 -95.5q-200 0 -321 89.5t-121 243.5z" />
<glyph unicode="t" horiz-adv-x="743" d="M60 966v177h161v287h216v-287h225v-177h-225v-633q0 -96 38.5 -130t140.5 -34q25 0 52 2v-173q-44 -6 -106 -6q-200 0 -271.5 76t-71.5 255v643h-159z" />
<glyph unicode="u" horiz-adv-x="1267" d="M150 383v764h220v-704q0 -268 256 -268q119 0 191 71.5t72 200.5v700h222v-1147h-218v156h-8q-33 -75 -117.5 -125t-213.5 -50q-183 0 -293.5 104t-110.5 298z" />
<glyph unicode="v" horiz-adv-x="1090" d="M25 1147h241l269 -928h8l292 928h233l-412 -1147h-233z" />
<glyph unicode="w" horiz-adv-x="1623" d="M31 1147h240l193 -887h11l239 887h208l248 -887h8l198 887h218l-304 -1147h-220l-250 862h-4l-244 -862h-224z" />
<glyph unicode="x" horiz-adv-x="1123" d="M48 1147h260l250 -412h10l256 412h248l-385 -562l387 -585h-256l-256 416h-8l-258 -416h-242l377 568z" />
<glyph unicode="y" horiz-adv-x="1144" d="M33 1147h244l287 -941h10l290 941h235q-398 -1136 -400 -1141l-29 -79q-29 -79 -58 -132t-77 -106t-117.5 -79t-161.5 -26q-67 0 -129 10v171q29 -6 87 -6q98 0 148 43.5t71 130.5l17 55z" />
<glyph unicode="z" horiz-adv-x="1063" d="M100 0v139l593 823v12h-593v173h862v-144l-583 -816v-10h593v-177h-872z" />
<glyph unicode="{" horiz-adv-x="801" d="M89 527v218q106 0 144 50t38 169v243q0 131 48.5 212.5t137 115.5t224.5 34h75v-166h-44q-131 0 -183 -53t-52 -174v-287q0 -221 -194 -240v-27q194 -19 194 -247v-323q0 -60 11.5 -102t39.5 -70t72.5 -40.5t111.5 -12.5h44v-168h-75q-135 0 -224 36.5t-137.5 119.5 t-48.5 216v277q0 119 -37.5 169t-144.5 50z" />
<glyph unicode="|" horiz-adv-x="734" d="M273 -333v1898h191v-1898h-191z" />
<glyph unicode="}" horiz-adv-x="801" d="M46 -173h46q87 0 139 24t74 72t22 129v323q-1 228 193 247v27q-194 19 -193 240v287q0 81 -22 130t-74 73t-139 24h-46v166h77q135 0 222.5 -34t136.5 -115.5t49 -212.5v-243q0 -119 38.5 -169t142.5 -50v-218q-106 0 -143.5 -50t-37.5 -169v-277q0 -133 -48 -216 t-137.5 -119.5t-222.5 -36.5h-77v168z" />
<glyph unicode="~" d="M75 574q0 164 78 269.5t242 105.5q125 0 250 -119q50 -52 88.5 -79t80.5 -27q131 0 141 183h181q0 -104 -31 -186t-105 -136t-184 -54q-123 0 -252 120q-2 4 -10 11q-33 33 -52 48.5t-48 31.5t-56 16q-131 0 -142 -184h-181z" />
<glyph unicode="&#xa1;" horiz-adv-x="574" d="M148 1070q0 58 39.5 95.5t99.5 37.5q65 0 105.5 -36.5t40.5 -96.5q0 -58 -40.5 -94.5t-105.5 -36.5q-60 0 -99.5 37.5t-39.5 93.5zM162 -300l29 1041h192l27 -1041h-248z" />
<glyph unicode="&#xa2;" d="M121 649v186q0 208 111 339t292 152v260h173v-260q112 -12 196.5 -67.5t126 -130.5t46.5 -158h-209q-12 69 -70.5 126t-174.5 57q-133 0 -207 -88.5t-74 -234.5v-183q0 -96 34.5 -166.5t98 -109t148.5 -38.5q114 0 175.5 46t76.5 116h208q-4 -131 -103 -227.5 t-272 -115.5v-246h-173v246q-183 21 -293 153t-110 344z" />
<glyph unicode="&#xa3;" d="M81 672v165h206v304q0 177 120 275.5t309 98.5q191 0 302.5 -95.5t115.5 -264.5h-206q-6 77 -62 128t-150 51q-54 0 -96.5 -17.5t-67.5 -48t-37.5 -69t-12.5 -81.5v-281h320v-165h-320v-222q-2 -208 -82 -254v-15h723v-181h-1041v191q54 2 83 9.5t55 34.5t36.5 80 t10.5 143v214h-206z" />
<glyph unicode="&#xa4;" d="M69 291l189 190q-71 106 -71 231t67 225l-185 183l122 120l182 -183q104 73 233 73q127 0 229 -69l181 179l118 -120l-179 -179q69 -106 69 -229q0 -129 -73 -235l183 -186l-118 -118l-188 185q-102 -65 -222 -65q-125 0 -227 69l-190 -189zM348 712q0 -71 34 -130.5 t93.5 -93.5t130.5 -34q106 0 183 76t77 182q0 52 -21 100t-56.5 83t-83 56t-99.5 21q-106 0 -182 -76t-76 -184z" />
<glyph unicode="&#xa5;" d="M-2 1486h254l349 -649h11l354 649h249l-430 -751h247v-150h-314v-152h314v-148h-314v-285h-223v285h-312v148h312v152h-312v150h248z" />
<glyph unicode="&#xa6;" horiz-adv-x="503" d="M156 -333v743h192v-743h-192zM156 851v714h192v-714h-192z" />
<glyph unicode="&#xa7;" horiz-adv-x="1011" d="M73 67h198q6 -37 23.5 -67.5t45.5 -53.5t70 -34.5t92 -11.5q114 0 169 51t55 128q0 35 -14.5 63.5t-34 45t-60 33t-69 25t-84.5 22.5q-12 2 -21 5q-62 17 -111 34.5t-97 44.5t-78 60t-49 82t-19 110q0 173 184 266v8q-177 100 -177 279q0 171 121.5 265.5t296.5 94.5 q181 0 293.5 -96.5t112.5 -246.5h-194q-2 40 -26 78t-75 66.5t-117 28.5q-92 0 -148 -50t-56 -129q0 -37 16.5 -67.5t38.5 -48.5t65.5 -34.5t71.5 -25t85 -20.5q65 -15 108.5 -28.5t95.5 -39.5t84 -59t54 -85t22 -117q0 -171 -167 -279v-8q73 -46 116 -104t43 -152 q0 -171 -121 -273t-316 -102q-183 0 -305 93t-122 249zM293 629q0 -79 56.5 -122t168.5 -70q15 -4 98 -23q35 12 63.5 43.5t44 71t15.5 79.5q0 29 -7.5 53t-21 42.5t-33 33t-46.5 27t-56.5 22t-64.5 17.5q-33 8 -81 17q-50 -15 -93 -70t-43 -121z" />
<glyph unicode="&#xa8;" horiz-adv-x="1028" d="M196 1436q0 50 31 81t77 31q25 0 45.5 -8t35.5 -22.5t23 -35.5t8 -46q0 -46 -31 -77t-81 -31q-46 0 -77 31t-31 77zM591 1436q0 50 30 81t78 31q50 0 81.5 -31t31.5 -81q0 -46 -31.5 -77t-81.5 -31q-23 0 -43.5 8.5t-35 23t-22 34t-7.5 42.5z" />
<glyph unicode="&#xa9;" horiz-adv-x="1783" d="M114 701v113q0 206 100 376.5t280 269.5t405 99q167 0 314.5 -59.5t249.5 -159.5t160.5 -237t58.5 -289v-113q0 -335 -219 -552.5t-564 -217.5t-565 217.5t-220 552.5zM252 697q0 -277 179 -456t468 -179t469 179t180 456v117q0 258 -183 434t-466 176q-189 0 -338 -81.5 t-229 -221t-80 -307.5v-117zM545 689v106q0 171 98 266.5t262 95.5q148 0 237.5 -83t93.5 -192h-150q-10 52 -51.5 95t-129.5 43q-208 0 -208 -231v-102q0 -110 55.5 -165.5t152.5 -55.5q160 0 186 119h149q-2 -106 -90.5 -184t-244.5 -78q-167 0 -263.5 95.5t-96.5 270.5z " />
<glyph unicode="&#xaa;" horiz-adv-x="697" d="M71 1034q0 89 59 139.5t174 50.5h160v56q0 96 -114 96q-98 0 -111 -65h-143q6 81 69.5 131t188.5 50q121 0 192.5 -51t71.5 -163v-425h-146v82h-8q-50 -92 -177 -92q-100 0 -158 51t-58 140zM221 1045q0 -44 32 -67t82 -23q35 0 64.5 14.5t47 39.5t17.5 57v60h-129 q-56 2 -85 -20t-29 -61z" />
<glyph unicode="&#xab;" horiz-adv-x="1375" d="M114 606v10l375 439h231l-370 -439v-6l370 -441h-241zM641 606v10l375 439h231l-369 -439v-6l369 -441h-242z" />
<glyph unicode="&#xac;" d="M75 504v177h1061v-577h-191v400h-870z" />
<glyph unicode="&#xad;" horiz-adv-x="855" d="M85 512v196h685v-196h-685z" />
<glyph unicode="&#xae;" horiz-adv-x="1259" d="M98 964v75q0 208 153 352.5t379.5 144.5t381 -144.5t154.5 -352.5v-75q0 -221 -151 -366.5t-384 -145.5q-152 0 -274 65.5t-190.5 183t-68.5 263.5zM206 964q0 -114 54 -207t152 -146t219 -53q185 0 305.5 115.5t120.5 290.5v72q0 164 -121.5 279t-303.5 115t-304 -113.5 t-122 -280.5v-72zM439 743v522h244q50 0 88.5 -20.5t60 -58t21.5 -81.5q0 -56 -30 -98.5t-74 -55.5l119 -208h-127l-102 196h-92v-196h-108zM547 1022h86q106 0 106 79q0 40 -25 60.5t-69 20.5h-98v-160z" />
<glyph unicode="&#xaf;" horiz-adv-x="1028" d="M204 1361v129h608v-129h-608z" />
<glyph unicode="&#xb0;" horiz-adv-x="591" d="M46 1257q0 104 72.5 177t179.5 73q67 0 125 -33.5t91 -90.5t33 -126q0 -104 -73.5 -177t-175.5 -73q-104 0 -178 73t-74 177zM175 1257q0 -50 36.5 -86.5t86.5 -36.5t85 36.5t35 86.5q0 52 -35 87.5t-85 35.5q-33 0 -61.5 -15.5t-45 -45t-16.5 -62.5z" />
<glyph unicode="&#xb1;" d="M85 712v173h427v285h183v-285h431v-173h-431v-302h-183v302h-427zM87 112v177h1041v-177h-1041z" />
<glyph unicode="&#xb2;" horiz-adv-x="695" d="M81 1259v11q0 60 27 111t87.5 85.5t143.5 34.5q114 0 185 -60.5t71 -152.5q0 -37 -11.5 -70.5t-34 -65.5t-38.5 -50t-47 -49l-171 -166v-2h315v-132h-512v100l264 281q79 81 79 142q0 44 -29 70t-73 26q-48 0 -77 -29.5t-29 -72.5v-11h-150z" />
<glyph unicode="&#xb3;" horiz-adv-x="705" d="M75 957h144q4 -40 37 -65.5t85 -25.5q54 0 88.5 29t34.5 73t-32 72t-89 28h-85v125h83q31 0 55 11t36.5 33t12.5 49q0 40 -29 65t-75 25q-48 0 -77 -26t-31 -64h-146q2 60 31.5 108t87.5 77.5t137 29.5q112 0 182 -54.5t70 -139.5q0 -42 -17.5 -76t-47.5 -58t-68 -35v-2 q69 -10 113.5 -53.5t44.5 -118.5q0 -67 -37.5 -119t-100 -78t-139.5 -26q-123 0 -194.5 63.5t-73.5 152.5z" />
<glyph unicode="&#xb4;" horiz-adv-x="1028" d="M241 1320l206 303h227l-256 -303h-177z" />
<glyph unicode="&#xb6;" horiz-adv-x="1404" d="M106 1016q0 89 22 164t61.5 125t88.5 86.5t105 56t108 29t102 9.5h235v-1715h-214v776h-21q-60 0 -123.5 15t-129 51t-117.5 88t-84.5 134.5t-32.5 180.5zM1001 -229v1715h214v-1715h-214z" />
<glyph unicode="&#xb7;" horiz-adv-x="657" d="M164 791q0 58 40 96.5t96 38.5q60 0 99.5 -38.5t39.5 -97.5t-39.5 -96.5t-99.5 -37.5q-56 0 -96 38.5t-40 96.5z" />
<glyph unicode="&#xb8;" horiz-adv-x="1028" d="M345 -391q48 -15 125 -15q127 0 127 79q0 25 -11.5 40.5t-37.5 22t-47.5 7.5t-59.5 1h-58v94l64 170h144l-58 -152q104 0 164.5 -45.5t60.5 -131.5q0 -100 -69 -151.5t-181 -56.5q-92 -4 -163 17v121z" />
<glyph unicode="&#xb9;" horiz-adv-x="636" d="M129 1209v146l173 131h158v-733h-158v579h-6z" />
<glyph unicode="&#xba;" horiz-adv-x="693" d="M52 1130v75q0 85 37.5 151t105 101t154 35t153 -34t104 -100t37.5 -153v-75q0 -135 -80 -212t-215 -77t-215.5 76t-80.5 213zM206 1134q0 -52 14.5 -89.5t48 -60t79.5 -22.5q71 0 106 46.5t35 125.5v67q0 37 -8.5 68.5t-26 54.5t-44.5 36.5t-62 13.5q-46 0 -78.5 -23 t-48 -61.5t-15.5 -88.5v-67z" />
<glyph unicode="&#xbb;" horiz-adv-x="1375" d="M123 169l368 441v6l-368 439h231l374 -439v-10l-364 -437h-241zM649 169l371 441v6l-371 439h231l375 -439v-10l-364 -437h-242z" />
<glyph unicode="&#xbc;" horiz-adv-x="1471" d="M33 1209v146l173 131h158v-733h-158v579h-6zM62 0l581 758l556 728h181l-577 -751l-559 -735h-182zM843 129v119q62 114 291 487h213v-485h87v-121h-87v-129h-140v129h-364zM991 250h216v358h-8q-79 -119 -208 -354v-4z" />
<glyph unicode="&#xbd;" horiz-adv-x="1488" d="M33 1209v146l173 131h158v-733h-158v579h-6zM62 0l581 758l556 728h181l-577 -751l-559 -735h-182zM949 491v13q0 96 67.5 164.5t194.5 68.5q117 0 187.5 -60.5t70.5 -154.5q0 -48 -23.5 -96.5t-45.5 -74.5t-62 -66l-175 -171v-2h319v-133h-520v102l268 283q83 85 83 146 q0 44 -30 70t-76 26q-48 0 -77 -29.5t-29 -72.5v-13h-152z" />
<glyph unicode="&#xbe;" horiz-adv-x="1525" d="M25 935h146q2 -25 17.5 -46t42.5 -33.5t62 -12.5q56 0 90.5 29t34.5 75q0 44 -33 72t-89 28h-86v125h83q31 0 56.5 12.5t38 34t12.5 49.5q0 42 -29.5 66.5t-74.5 24.5q-50 0 -79.5 -26t-31.5 -65h-148q2 60 31.5 108t88.5 78t141 30q112 0 183 -54t71 -142 q0 -62 -37.5 -108t-98.5 -62v-2q44 -6 79.5 -27t58.5 -58.5t23 -89.5q0 -102 -80.5 -163.5t-198.5 -61.5q-85 0 -148 31t-94 80t-31 108zM114 0l581 758l556 728h181l-577 -751l-559 -735h-182zM895 129v119q74 137 293 487h213v-483h87v-123h-87v-129h-142v129h-364z M1045 252h214v356h-6q-81 -121 -208 -352v-4z" />
<glyph unicode="&#xbf;" horiz-adv-x="1040" d="M62 29q0 65 17 119t53.5 97.5t64.5 69.5t78 66q58 46 82 66.5t50 52t33 62.5t7 77v62h209v-83q4 -108 -49 -185t-153 -154q-62 -46 -91.5 -73t-52.5 -69.5t-23 -96.5q0 -104 68 -156.5t169 -52.5q79 0 135.5 33.5t82.5 88.5t26 126h208q2 -117 -38.5 -203t-110 -134 t-148 -71t-165.5 -23q-121 0 -220.5 40.5t-165.5 128t-66 212.5zM406 1053q0 60 39.5 97.5t99.5 37.5q44 0 76.5 -16.5t51 -47.5t18.5 -71q0 -37 -18.5 -66.5t-52 -46t-75.5 -16.5q-60 0 -99.5 36.5t-39.5 92.5z" />
<glyph unicode="&#xc0;" horiz-adv-x="1325" d="M23 0l518 1486h244l518 -1486h-242l-137 427h-535l-139 -427h-227zM281 1865h233l275 -221h-190zM443 599h427l-208 644h-8z" />
<glyph unicode="&#xc1;" horiz-adv-x="1325" d="M23 0l518 1486h244l518 -1486h-242l-137 427h-535l-139 -427h-227zM443 599h427l-208 644h-8zM537 1644l277 225h239l-322 -225h-194z" />
<glyph unicode="&#xc2;" horiz-adv-x="1325" d="M23 0l518 1486h244l518 -1486h-242l-137 427h-535l-139 -427h-227zM302 1640l302 260h129l297 -260h-191l-169 154h-8l-169 -154h-191zM443 599h427l-208 644h-8z" />
<glyph unicode="&#xc3;" horiz-adv-x="1325" d="M23 0l518 1486h244l518 -1486h-242l-137 427h-535l-139 -427h-227zM356 1630q0 89 48 152.5t137 63.5q79 0 154 -73q6 -4 21 -17.5t21 -18.5t18.5 -11.5t24.5 -6.5q33 0 51 33.5t22 74.5h125q0 -85 -52 -150.5t-133 -65.5q-56 0 -89.5 15.5t-66.5 46.5l-9.5 9.5 t-9.5 10.5t-9.5 9.5t-10.5 8.5l-9 6t-11.5 6t-12.5 3t-13 1q-65 0 -69 -97h-127zM443 599h427l-208 644h-8z" />
<glyph unicode="&#xc4;" horiz-adv-x="1325" d="M23 0l518 1486h244l518 -1486h-242l-137 427h-535l-139 -427h-227zM423 1723q0 44 28 72t69 28q44 0 71 -28t27 -72q0 -21 -7 -38.5t-19.5 -31t-31.5 -21t-40 -7.5q-42 0 -69.5 28t-27.5 70zM443 599h427l-208 644h-8zM760 1723q0 21 7 40t19.5 32.5t30.5 20.5t38 7 q44 0 71 -28t27 -72q0 -42 -27 -70t-71 -28q-42 0 -68.5 28t-26.5 70z" />
<glyph unicode="&#xc5;" horiz-adv-x="1325" d="M25 0l506 1447q-50 29 -79 80t-29 109q0 98 69.5 165.5t169.5 67.5q96 0 164.5 -67.5t68.5 -165.5q0 -56 -27 -105t-73 -78l508 -1453h-239l-140 427h-533l-141 -427h-225zM443 599h427l-206 644h-10zM543 1636q0 -48 34.5 -82.5t83.5 -34.5t82 34.5t33 82.5 q0 31 -15.5 58t-41.5 42.5t-57 15.5q-25 0 -47 -9t-37.5 -24.5t-25 -37.5t-9.5 -45z" />
<glyph unicode="&#xc6;" horiz-adv-x="2029" d="M12 0l783 1486h1111v-194h-680v-443h643v-185h-643v-470h680v-194h-903v441h-510l-229 -441h-252zM583 620h420v672h-77z" />
<glyph unicode="&#xc7;" horiz-adv-x="1369" d="M112 645v190q0 325 159.5 503.5t436.5 178.5q131 0 240 -43.5t177 -115.5t105.5 -162.5t37.5 -188.5v-10h-219q0 129 -91.5 226t-247.5 97q-112 0 -194.5 -52.5t-130.5 -163.5t-48 -271v-188q0 -241 100 -359.5t277 -118.5q106 0 183 41.5t114.5 109t37.5 148.5h219v-10 q0 -54 -14 -108.5t-41 -106.5t-69.5 -97.5t-96.5 -82t-126 -59.5t-155 -29l-44 -117q104 0 164.5 -45.5t60.5 -131.5q0 -100 -69 -152t-181 -56q-89 -4 -162 17v121q48 -15 125 -15q127 0 127 79q0 21 -9.5 34.5t-22 21t-35.5 10.5t-40.5 4t-48.5 1h-59v94l52 135 q-241 27 -376.5 199.5t-135.5 472.5z" />
<glyph unicode="&#xc8;" horiz-adv-x="1205" d="M173 0v1486h911v-194h-689v-443h650v-185h-650v-470h689v-194h-911zM239 1865h236l272 -221h-189z" />
<glyph unicode="&#xc9;" horiz-adv-x="1205" d="M173 0v1486h911v-194h-689v-443h650v-185h-650v-470h689v-194h-911zM495 1644l277 225h240l-323 -225h-194z" />
<glyph unicode="&#xca;" horiz-adv-x="1205" d="M173 0v1486h911v-194h-689v-443h650v-185h-650v-470h689v-194h-911zM260 1640l302 260h129l298 -260h-192l-168 154h-9l-168 -154h-192z" />
<glyph unicode="&#xcb;" horiz-adv-x="1205" d="M173 0v1486h911v-194h-689v-443h650v-185h-650v-470h689v-194h-911zM381 1723q0 44 28 72t70 28q44 0 71 -28t27 -72q0 -21 -7.5 -38.5t-20 -31t-31 -21t-39.5 -7.5q-42 0 -70 28t-28 70zM718 1723q0 21 7.5 40t20 32.5t30 20.5t38.5 7q44 0 71 -28t27 -72 q0 -42 -27.5 -70t-70.5 -28q-42 0 -69 28t-27 70z" />
<glyph unicode="&#xcc;" horiz-adv-x="566" d="M-100 1865h235l275 -221h-191zM173 0v1486h222v-1486h-222z" />
<glyph unicode="&#xcd;" horiz-adv-x="566" d="M156 1644l279 225h237l-322 -225h-194zM173 0v1486h222v-1486h-222z" />
<glyph unicode="&#xce;" horiz-adv-x="566" d="M-79 1640l302 260h129l299 -260h-191l-169 154h-10l-169 -154h-191zM173 0v1486h222v-1486h-222z" />
<glyph unicode="&#xcf;" horiz-adv-x="566" d="M42 1723q0 44 28 72t69 28q44 0 72 -28t28 -72q0 -42 -28 -70t-72 -28q-42 0 -69.5 28t-27.5 70zM173 0v1486h222v-1486h-222zM379 1723q0 21 7 40t19.5 32.5t31.5 20.5t40 7q44 0 70.5 -28t26.5 -72q0 -42 -28 -70t-69 -28q-44 0 -71 28t-27 70z" />
<glyph unicode="&#xd0;" horiz-adv-x="1504" d="M83 662v193h177v631h498q175 0 304 -54t204.5 -155t112 -233t36.5 -299t-35 -299t-110 -234t-205 -157t-307 -55h-498v662h-177zM483 196h254q227 0 336 135t109 412q0 554 -445 554h-254v-442h314v-193h-314v-466z" />
<glyph unicode="&#xd1;" horiz-adv-x="1488" d="M173 0v1486h202l718 -1103h6v1103h218v-1486h-204l-718 1105h-6v-1105h-216zM437 1630q0 89 47 152.5t138 63.5q79 0 154 -73q4 -4 19 -17.5t21 -18.5t18.5 -11.5t27.5 -6.5q33 0 50.5 33.5t19.5 74.5h127q0 -85 -52 -150.5t-133 -65.5q-31 0 -54 4t-41.5 13.5t-32 19.5 t-28.5 25l-9.5 9.5t-9.5 10.5t-9 9.5t-10.5 8.5l-10.5 6t-12.5 6t-11.5 3t-12 1q-65 0 -71 -97h-125z" />
<glyph unicode="&#xd2;" horiz-adv-x="1440" d="M112 631v210q0 314 164.5 495t445.5 181q185 0 322.5 -81t211.5 -234t74 -361v-210q0 -312 -164.5 -487t-446.5 -175t-444.5 175t-162.5 487zM337 631q0 -229 105 -346.5t278 -117.5q171 0 277 117.5t106 346.5v212q0 229 -106 354t-277 125q-110 0 -195.5 -53.5 t-136.5 -162.5t-51 -263v-212zM337 1865h235l273 -221h-189z" />
<glyph unicode="&#xd3;" horiz-adv-x="1440" d="M112 631v210q0 314 164.5 495t445.5 181q185 0 322.5 -81t211.5 -234t74 -361v-210q0 -312 -164.5 -487t-446.5 -175t-444.5 175t-162.5 487zM337 631q0 -229 105 -346.5t278 -117.5q171 0 277 117.5t106 346.5v212q0 229 -106 354t-277 125q-110 0 -195.5 -53.5 t-136.5 -162.5t-51 -263v-212zM593 1644l277 225h239l-322 -225h-194z" />
<glyph unicode="&#xd4;" horiz-adv-x="1440" d="M112 631v210q0 314 164.5 495t445.5 181q185 0 322.5 -81t211.5 -234t74 -361v-210q0 -312 -164.5 -487t-446.5 -175t-444.5 175t-162.5 487zM337 631q0 -229 105 -346.5t278 -117.5q171 0 277 117.5t106 346.5v212q0 229 -106 354t-277 125q-110 0 -195.5 -53.5 t-136.5 -162.5t-51 -263v-212zM358 1640l302 260h129l300 -260h-194l-169 154h-8l-169 -154h-191z" />
<glyph unicode="&#xd5;" horiz-adv-x="1440" d="M112 631v210q0 314 164.5 495t445.5 181q185 0 322.5 -81t211.5 -234t74 -361v-210q0 -312 -164.5 -487t-446.5 -175t-444.5 175t-162.5 487zM337 631q0 -229 105 -346.5t278 -117.5q171 0 277 117.5t106 346.5v212q0 229 -106 354t-277 125q-110 0 -195.5 -53.5 t-136.5 -162.5t-51 -263v-212zM412 1630q0 89 48 152.5t137 63.5q79 0 154 -73q6 -4 21 -17.5t21 -18.5t18.5 -11.5t25.5 -6.5q33 0 50.5 33.5t22.5 74.5h124q0 -85 -51 -150.5t-134 -65.5q-56 0 -89.5 15.5t-66.5 46.5q-2 4 -7 9.5t-8.5 8.5t-8.5 8.5t-9 7.5t-9.5 6t-9.5 6 t-9.5 4t-11.5 3t-12 1q-65 0 -69 -97h-127z" />
<glyph unicode="&#xd6;" horiz-adv-x="1440" d="M112 631v210q0 314 164.5 495t445.5 181q185 0 322.5 -81t211.5 -234t74 -361v-210q0 -312 -164.5 -487t-446.5 -175t-444.5 175t-162.5 487zM337 631q0 -229 105 -346.5t278 -117.5q171 0 277 117.5t106 346.5v212q0 229 -106 354t-277 125q-110 0 -195.5 -53.5 t-136.5 -162.5t-51 -263v-212zM479 1723q0 44 28 72t70 28q44 0 70.5 -28t26.5 -72q0 -42 -27 -70t-70 -28q-42 0 -70 28t-28 70zM816 1723q0 44 27 72t69 28q44 0 70.5 -28t26.5 -72q0 -42 -27 -70t-70 -28q-42 0 -69 28t-27 70z" />
<glyph unicode="&#xd7;" d="M137 210l338 337l-338 338l131 131l338 -337l339 337l129 -131l-337 -338l337 -337l-129 -131l-339 337l-338 -337z" />
<glyph unicode="&#xd8;" horiz-adv-x="1440" d="M81 77l127 156q-96 162 -96 398v210q0 314 164.5 495t445.5 181q248 0 406 -145l104 129l119 -88l-127 -156q106 -167 106 -416v-210q0 -312 -164.5 -487t-447.5 -175q-256 0 -414 148l-108 -134zM335 631q0 -117 31 -202l627 776q-104 119 -273 119q-112 0 -197.5 -53 t-136.5 -163.5t-51 -264.5v-212zM439 283q102 -121 281 -121q173 0 279 119t106 350v212q0 127 -37 223z" />
<glyph unicode="&#xd9;" horiz-adv-x="1458" d="M154 520v966h225v-959q0 -167 94.5 -263.5t254.5 -96.5q162 0 258 96.5t96 263.5v959h223v-970q0 -246 -158 -396.5t-419 -150.5q-256 0 -415 152t-159 399zM348 1865h233l274 -221h-189z" />
<glyph unicode="&#xda;" horiz-adv-x="1458" d="M154 520v966h225v-959q0 -167 94.5 -263.5t254.5 -96.5q162 0 258 96.5t96 263.5v959h223v-970q0 -246 -158 -396.5t-419 -150.5q-256 0 -415 152t-159 399zM604 1644l276 225h240l-323 -225h-193z" />
<glyph unicode="&#xdb;" horiz-adv-x="1458" d="M154 520v966h225v-959q0 -167 94.5 -263.5t254.5 -96.5q162 0 258 96.5t96 263.5v959h223v-970q0 -246 -158 -396.5t-419 -150.5q-256 0 -415 152t-159 399zM368 1640l302 260h129l298 -260h-192l-168 154h-9l-168 -154h-192z" />
<glyph unicode="&#xdc;" horiz-adv-x="1458" d="M154 520v966h225v-959q0 -167 94.5 -263.5t254.5 -96.5q162 0 258 96.5t96 263.5v959h223v-970q0 -246 -158 -396.5t-419 -150.5q-256 0 -415 152t-159 399zM489 1723q0 29 12.5 51t34.5 35.5t51 13.5q44 0 71 -28t27 -72q0 -42 -27 -70t-71 -28q-42 0 -70 28t-28 70z M824 1723q0 21 7.5 40t21 32.5t31 20.5t38.5 7q44 0 71 -28t27 -72q0 -42 -27 -70t-71 -28q-42 0 -70 28t-28 70z" />
<glyph unicode="&#xdd;" horiz-adv-x="1205" d="M-6 1486h254l351 -649h9l356 649h247l-497 -868v-618h-223v616zM477 1644l276 225h240l-323 -225h-193z" />
<glyph unicode="&#xde;" horiz-adv-x="1263" d="M173 0v1486h220v-275h319q225 0 354 -115.5t129 -321.5t-129 -320.5t-354 -114.5h-317v-339h-222zM395 527h250q60 0 103 4t86.5 19.5t70.5 42.5t44 73t17 108q0 248 -281 248h-290v-495z" />
<glyph unicode="&#xdf;" horiz-adv-x="1361" d="M171 0v1138q0 202 131 315.5t347 113.5q216 2 348.5 -105t130.5 -280q0 -65 -18.5 -122t-48 -96.5t-67 -69.5t-73.5 -45.5t-68 -18.5v-14q104 0 196 -42.5t155.5 -135.5t63.5 -218q0 -142 -76 -243.5t-191.5 -148.5t-255.5 -47q-104 0 -171 21v179q54 -21 152 -21 q60 0 114.5 13.5t101.5 44t75 82.5t28 123q0 65 -26 115.5t-73 85t-112.5 53t-146.5 18.5h-83v206h50q98 0 178 72t80 184q0 100 -69 164.5t-187 64.5q-264 0 -265 -283v-1103h-220z" />
<glyph unicode="&#xe0;" horiz-adv-x="1165" d="M96 329q0 102 45.5 177t137 117.5t221.5 42.5h295v127q0 191 -223 191q-204 0 -222 -172h-213q4 77 32.5 140.5t80.5 112t136 75t195 26.5q204 0 319.5 -91t115.5 -284v-791h-211v150h-8q-44 -75 -126 -122t-201 -47q-169 0 -271.5 95t-102.5 253zM264 1625h225l210 -299 h-177zM318 339q0 -89 62.5 -136t154.5 -47q110 0 185 66.5t75 166.5v121h-264q-106 0 -159.5 -46t-53.5 -125z" />
<glyph unicode="&#xe1;" horiz-adv-x="1165" d="M96 329q0 102 45.5 177t137 117.5t221.5 42.5h295v127q0 191 -223 191q-204 0 -222 -172h-213q4 77 32.5 140.5t80.5 112t136 75t195 26.5q204 0 319.5 -91t115.5 -284v-791h-211v150h-8q-44 -75 -126 -122t-201 -47q-169 0 -271.5 95t-102.5 253zM318 339 q0 -89 62.5 -136t154.5 -47q110 0 185 66.5t75 166.5v121h-264q-106 0 -159.5 -46t-53.5 -125zM464 1324l206 301h227l-256 -301h-177z" />
<glyph unicode="&#xe2;" horiz-adv-x="1165" d="M96 329q0 102 45.5 177t137 117.5t221.5 42.5h295v127q0 191 -223 191q-204 0 -222 -172h-213q4 77 32.5 140.5t80.5 112t136 75t195 26.5q204 0 319.5 -91t115.5 -284v-791h-211v150h-8q-44 -75 -126 -122t-201 -47q-169 0 -271.5 95t-102.5 253zM277 1326l233 322h144 l222 -324h-177l-116 202h-4l-127 -200h-175zM318 339q0 -89 62.5 -136t154.5 -47q110 0 185 66.5t75 166.5v121h-264q-106 0 -159.5 -46t-53.5 -125z" />
<glyph unicode="&#xe3;" horiz-adv-x="1165" d="M96 329q0 102 45.5 177t137 117.5t221.5 42.5h295v127q0 191 -223 191q-204 0 -222 -172h-213q4 77 32.5 140.5t80.5 112t136 75t195 26.5q204 0 319.5 -91t115.5 -284v-791h-211v150h-8q-44 -75 -126 -122t-201 -47q-169 0 -271.5 95t-102.5 253zM248 1280q0 106 51 179 t151 73q83 0 160 -79q6 -4 17.5 -16.5t16.5 -18t14.5 -12.5t19 -9.5t21.5 -2.5q25 0 42 21t24 46t9 52h136q0 -98 -56.5 -175t-147.5 -77q-92 0 -159 73q-2 0 -8 7.5t-7 8.5t-7.5 7t-9.5 8t-8 6.5t-8.5 6.5t-9.5 5t-10 4t-10.5 2t-10.5 1q-67 0 -75 -110h-135zM318 339 q0 -89 62.5 -136t154.5 -47q110 0 185 66.5t75 166.5v121h-264q-106 0 -159.5 -46t-53.5 -125z" />
<glyph unicode="&#xe4;" horiz-adv-x="1165" d="M96 329q0 102 45.5 177t137 117.5t221.5 42.5h295v127q0 191 -223 191q-204 0 -222 -172h-213q4 77 32.5 140.5t80.5 112t136 75t195 26.5q204 0 319.5 -91t115.5 -284v-791h-211v150h-8q-44 -75 -126 -122t-201 -47q-169 0 -271.5 95t-102.5 253zM275 1376q0 48 31 80 t79 32q33 0 58 -14.5t39.5 -40.5t14.5 -57q0 -48 -31 -79.5t-81 -31.5q-48 0 -79 31.5t-31 79.5zM318 339q0 -89 62.5 -136t154.5 -47q110 0 185 66.5t75 166.5v121h-264q-106 0 -159.5 -46t-53.5 -125zM670 1376q0 48 31.5 80t78.5 32q48 0 79.5 -31t31.5 -81 q0 -48 -31.5 -79.5t-79.5 -31.5q-25 0 -44.5 8.5t-34 23t-23 34.5t-8.5 45z" />
<glyph unicode="&#xe5;" horiz-adv-x="1165" d="M96 329q0 102 45.5 177t137 117.5t221.5 42.5h295v127q0 191 -223 191q-204 0 -222 -172h-213q4 77 32.5 140.5t80.5 112t136 75t195 26.5q204 0 319.5 -91t115.5 -284v-791h-211v150h-8q-44 -75 -126 -122t-201 -47q-169 0 -271.5 95t-102.5 253zM318 339 q0 -89 62.5 -136t154.5 -47q110 0 185 66.5t75 166.5v121h-264q-106 0 -159.5 -46t-53.5 -125zM366 1507q0 89 62.5 149.5t152.5 60.5q92 0 153 -60.5t61 -149.5t-61 -148.5t-153 -59.5q-58 0 -108 27t-78.5 75t-28.5 106zM472 1507q0 -46 31.5 -77t77.5 -31t77 31t31 77 t-31.5 77t-76.5 31q-46 0 -77.5 -31t-31.5 -77z" />
<glyph unicode="&#xe6;" horiz-adv-x="1864" d="M92 331q0 158 108 249.5t306 91.5h291v111q0 69 -28 114.5t-78 66t-121 20.5q-189 0 -225 -131h-210q12 148 127 231.5t315 83.5q117 0 211 -38.5t140 -111.5h15q33 46 87 80t119.5 52t138.5 18q214 0 345.5 -139.5t131.5 -372.5v-136h-741v-83q0 -79 33.5 -141.5t98 -98 t147.5 -35.5q94 0 154 37.5t73 96.5h220q-6 -52 -35 -104.5t-80 -101t-137.5 -79t-192.5 -30.5q-162 0 -269.5 62.5t-148.5 158.5h-17q-46 -94 -143.5 -157.5t-243.5 -63.5q-114 0 -203 42t-138.5 121t-49.5 187zM312 343q0 -92 65.5 -139.5t159.5 -47.5q110 0 185 66.5 t75 166.5v127h-264q-108 0 -164.5 -48t-56.5 -125zM1024 670h524v23q0 137 -69.5 216.5t-188.5 79.5q-114 0 -190 -80.5t-76 -205.5v-33z" />
<glyph unicode="&#xe7;" horiz-adv-x="1132" d="M104 514v125q0 152 55 270.5t167.5 188.5t264.5 70q206 0 327 -109.5t123 -261.5h-211q-6 46 -32 86.5t-80 70.5t-123 30q-133 0 -202.5 -98.5t-69.5 -252.5v-119q0 -152 72.5 -247.5t199.5 -95.5q106 0 165.5 45.5t76.5 118.5h210q-4 -133 -107 -232t-274 -118l-50 -110 q102 0 159.5 -45.5t57.5 -131.5q0 -102 -69 -153t-181 -55q-98 -2 -163 17v120q52 -15 125 -14q125 0 125 79q0 48 -34.5 59.5t-111.5 11.5h-58v93l56 129q-200 21 -309 164.5t-109 364.5z" />
<glyph unicode="&#xe8;" horiz-adv-x="1169" d="M104 520v100q0 248 127 398t358 150q233 0 358 -149t125 -397v-100h-749v-33q0 -137 70.5 -232t207.5 -95q106 0 164.5 46t73.5 115h218q-8 -60 -37 -116.5t-80 -109.5t-138.5 -84.5t-197.5 -31.5q-241 0 -370.5 146t-129.5 393zM266 1625h225l210 -299h-177zM323 683 h532v4q0 135 -71.5 218.5t-194.5 83.5t-194.5 -84.5t-71.5 -217.5v-4z" />
<glyph unicode="&#xe9;" horiz-adv-x="1169" d="M104 520v100q0 248 127 398t358 150q233 0 358 -149t125 -397v-100h-749v-33q0 -137 70.5 -232t207.5 -95q106 0 164.5 46t73.5 115h218q-8 -60 -37 -116.5t-80 -109.5t-138.5 -84.5t-197.5 -31.5q-241 0 -370.5 146t-129.5 393zM323 683h532v4q0 135 -71.5 218.5 t-194.5 83.5t-194.5 -84.5t-71.5 -217.5v-4zM466 1324l206 301h227l-256 -301h-177z" />
<glyph unicode="&#xea;" horiz-adv-x="1169" d="M104 520v100q0 248 127 398t358 150q233 0 358 -149t125 -397v-100h-749v-33q0 -137 70.5 -232t207.5 -95q106 0 164.5 46t73.5 115h218q-8 -60 -37 -116.5t-80 -109.5t-138.5 -84.5t-197.5 -31.5q-241 0 -370.5 146t-129.5 393zM279 1326l233 322h144l222 -324h-177 l-116 202h-4l-127 -200h-175zM323 683h532v4q0 135 -71.5 218.5t-194.5 83.5t-194.5 -84.5t-71.5 -217.5v-4z" />
<glyph unicode="&#xeb;" horiz-adv-x="1169" d="M104 520v100q0 248 127 398t358 150q233 0 358 -149t125 -397v-100h-749v-33q0 -137 70.5 -232t207.5 -95q106 0 164.5 46t73.5 115h218q-8 -60 -37 -116.5t-80 -109.5t-138.5 -84.5t-197.5 -31.5q-241 0 -370.5 146t-129.5 393zM277 1376q0 48 31 80t79 32q25 0 46 -8.5 t35.5 -23t23 -36t8.5 -44.5q0 -48 -31.5 -79.5t-81.5 -31.5q-48 0 -79 31.5t-31 79.5zM323 683h532v4q0 135 -71.5 218.5t-194.5 83.5t-194.5 -84.5t-71.5 -217.5v-4zM672 1376q0 48 31.5 80t79.5 32t79 -31t31 -81q0 -48 -31.5 -79.5t-78.5 -31.5q-25 0 -45 8.5t-34.5 23 t-23 34.5t-8.5 45z" />
<glyph unicode="&#xec;" horiz-adv-x="586" d="M-25 1625h227l210 -299h-179zM185 0v1147h223v-1147h-223z" />
<glyph unicode="&#xed;" horiz-adv-x="586" d="M177 1324l206 301h227l-256 -301h-177zM185 0v1147h223v-1147h-223z" />
<glyph unicode="&#xee;" horiz-adv-x="586" d="M-10 1326l233 322h143l223 -324h-177l-116 202h-5l-127 -200h-174zM185 0v1147h223v-1147h-223z" />
<glyph unicode="&#xef;" horiz-adv-x="586" d="M-12 1376q0 48 31 80t79 32q50 0 80 -31t30 -81q0 -48 -31 -79.5t-79 -31.5t-79 31.5t-31 79.5zM185 0v1147h223v-1147h-223zM383 1376q0 48 31 80t77 32q50 0 81.5 -31t31.5 -81q0 -48 -31.5 -79.5t-81.5 -31.5q-46 0 -77 31.5t-31 79.5z" />
<glyph unicode="&#xf0;" horiz-adv-x="1213" d="M104 495v98q0 233 133 372.5t346 139.5q185 0 283 -123h12q0 4 -5 34.5t-7 32.5q-25 137 -144 279l-306 -115l-41 119l254 92q-87 81 -215 162l175 87q129 -65 237 -177l265 96l45 -110l-220 -81q96 -123 145.5 -276t49.5 -309v-316q0 -241 -139 -380t-364 -139 q-227 0 -365.5 135.5t-138.5 378.5zM321 508q0 -106 34 -183t99.5 -117.5t153 -40.5t152 40.5t98 117.5t33.5 183v87q0 160 -76 245.5t-207 85.5q-129 0 -208 -93.5t-79 -249.5v-75z" />
<glyph unicode="&#xf1;" horiz-adv-x="1273" d="M158 0v1147h217v-154h8q33 71 120.5 122t210.5 51q177 0 292.5 -106.5t115.5 -297.5v-762h-221v687q0 285 -258 285q-85 0 -143.5 -33.5t-89.5 -99t-31 -160.5v-679h-221zM302 1280q0 106 51 179t151 73q83 0 162 -79q4 -6 12.5 -15.5t13.5 -14t13.5 -11.5t14.5 -10 t14.5 -5.5t18.5 -2.5q35 0 54 36.5t21 82.5h136q0 -98 -56.5 -175t-145.5 -77q-94 0 -161 73q-2 0 -8 7.5t-7 8.5t-7.5 7t-8.5 8t-8 6.5t-9.5 6.5t-9.5 5t-10 4t-9.5 2t-11.5 1q-67 0 -75 -110h-135z" />
<glyph unicode="&#xf2;" horiz-adv-x="1213" d="M104 531v87q0 246 129 398t375 152q248 0 375.5 -149t127.5 -399v-89q0 -254 -128 -402t-375 -148q-250 0 -377 147t-127 403zM287 1625h227l210 -299h-179zM323 543q0 -62 8 -116t29 -104t53 -84.5t81 -55.5t114 -21q281 0 281 381v63q0 62 -8.5 116t-29.5 104t-52 84.5 t-80 55.5t-111 21q-79 0 -136.5 -31.5t-88.5 -85.5t-45.5 -119.5t-14.5 -144.5v-63z" />
<glyph unicode="&#xf3;" horiz-adv-x="1213" d="M104 531v87q0 246 129 398t375 152q248 0 375.5 -149t127.5 -399v-89q0 -254 -128 -402t-375 -148q-250 0 -377 147t-127 403zM323 543q0 -62 8 -116t29 -104t53 -84.5t81 -55.5t114 -21q281 0 281 381v63q0 62 -8.5 116t-29.5 104t-52 84.5t-80 55.5t-111 21 q-79 0 -136.5 -31.5t-88.5 -85.5t-45.5 -119.5t-14.5 -144.5v-63zM487 1324l208 301h227l-256 -301h-179z" />
<glyph unicode="&#xf4;" horiz-adv-x="1213" d="M104 531v87q0 246 129 398t375 152q248 0 375.5 -149t127.5 -399v-89q0 -254 -128 -402t-375 -148q-250 0 -377 147t-127 403zM302 1326l231 322h146l222 -324h-177l-118 202h-5l-124 -200h-175zM323 543q0 -62 8 -116t29 -104t53 -84.5t81 -55.5t114 -21q281 0 281 381 v63q0 62 -8.5 116t-29.5 104t-52 84.5t-80 55.5t-111 21q-79 0 -136.5 -31.5t-88.5 -85.5t-45.5 -119.5t-14.5 -144.5v-63z" />
<glyph unicode="&#xf5;" horiz-adv-x="1213" d="M104 531v87q0 246 129 398t375 152q248 0 375.5 -149t127.5 -399v-89q0 -254 -128 -402t-375 -148q-250 0 -377 147t-127 403zM273 1280q0 106 51 179t151 73q81 0 160 -79q4 -4 15.5 -16.5t16.5 -18t15.5 -12.5t20 -9.5t19.5 -2.5q37 0 55 36.5t20 82.5h135 q0 -98 -56 -175t-145 -77q-94 0 -161 73l-7 8l-8 8t-7.5 7t-8.5 8t-8.5 6.5t-9.5 6.5t-8 5t-10.5 4t-10.5 2t-11 1q-67 0 -73 -110h-135zM323 543q0 -62 8 -116t29 -104t53 -84.5t81 -55.5t114 -21q281 0 281 381v63q0 62 -8.5 116t-29.5 104t-52 84.5t-80 55.5t-111 21 q-79 0 -136.5 -31.5t-88.5 -85.5t-45.5 -119.5t-14.5 -144.5v-63z" />
<glyph unicode="&#xf6;" horiz-adv-x="1213" d="M104 531v87q0 246 129 398t375 152q248 0 375.5 -149t127.5 -399v-89q0 -254 -128 -402t-375 -148q-250 0 -377 147t-127 403zM300 1376q0 48 31 80t79 32q31 0 57 -14.5t39.5 -40.5t13.5 -57q0 -48 -31 -79.5t-79 -31.5q-25 0 -45 8.5t-34.5 23t-22.5 34.5t-8 45z M323 543q0 -62 8 -116t29 -104t53 -84.5t81 -55.5t114 -21q281 0 281 381v63q0 62 -8.5 116t-29.5 104t-52 84.5t-80 55.5t-111 21q-79 0 -136.5 -31.5t-88.5 -85.5t-45.5 -119.5t-14.5 -144.5v-63zM695 1376q0 48 30.5 80t77.5 32q33 0 58.5 -14.5t40 -40.5t14.5 -57 q0 -48 -31.5 -79.5t-81.5 -31.5q-48 0 -78 31.5t-30 79.5z" />
<glyph unicode="&#xf7;" d="M85 520v171h1041v-171h-1041zM454 1036q0 25 7 49t21.5 43t32.5 32.5t41 20.5t48 7q31 0 60 -11t50 -31t32.5 -48t11.5 -62q0 -65 -44 -106t-110 -41q-62 0 -106 41t-44 106zM460 181q0 33 11.5 61.5t31 48t48 31t59.5 11.5q67 0 110.5 -43.5t43.5 -108.5t-45 -106.5 t-109 -41.5q-62 0 -106 43t-44 105z" />
<glyph unicode="&#xf8;" horiz-adv-x="1213" d="M94 0l116 158q-106 137 -106 337v159q0 233 140.5 373.5t363.5 140.5q164 0 293 -88l108 148l109 -85l-117 -156q110 -137 110 -331v-159q0 -162 -65.5 -279.5t-177.5 -177t-260 -59.5q-169 0 -296 86l-110 -148zM318 481q0 -87 32 -154l439 603q-73 62 -181 63 q-131 0 -210.5 -99t-79.5 -251v-162zM425 219q73 -60 183 -61q135 0 211 97t76 253v162q0 83 -33 148z" />
<glyph unicode="&#xf9;" horiz-adv-x="1267" d="M150 383v764h220v-704q0 -268 256 -268q119 0 191 71.5t72 200.5v700h222v-1147h-218v156h-8q-33 -75 -117.5 -125t-213.5 -50q-183 0 -293.5 104t-110.5 298zM314 1625h227l210 -299h-179z" />
<glyph unicode="&#xfa;" horiz-adv-x="1267" d="M150 383v764h220v-704q0 -268 256 -268q119 0 191 71.5t72 200.5v700h222v-1147h-218v156h-8q-33 -75 -117.5 -125t-213.5 -50q-183 0 -293.5 104t-110.5 298zM514 1324l208 301h227l-256 -301h-179z" />
<glyph unicode="&#xfb;" horiz-adv-x="1267" d="M150 383v764h220v-704q0 -268 256 -268q119 0 191 71.5t72 200.5v700h222v-1147h-218v156h-8q-33 -75 -117.5 -125t-213.5 -50q-183 0 -293.5 104t-110.5 298zM329 1326l231 322h146l222 -324h-177l-118 202h-4l-125 -200h-175z" />
<glyph unicode="&#xfc;" horiz-adv-x="1267" d="M150 383v764h220v-704q0 -268 256 -268q119 0 191 71.5t72 200.5v700h222v-1147h-218v156h-8q-33 -75 -117.5 -125t-213.5 -50q-183 0 -293.5 104t-110.5 298zM327 1376q0 48 31 80t79 32t79 -31t31 -81q0 -25 -8 -45t-22.5 -34.5t-35.5 -23t-44 -8.5q-48 0 -79 31.5 t-31 79.5zM722 1376q0 48 30.5 80t77.5 32q50 0 81.5 -31t31.5 -81q0 -31 -14.5 -56t-39.5 -40t-59 -15q-48 0 -78 31.5t-30 79.5z" />
<glyph unicode="&#xfd;" horiz-adv-x="1144" d="M33 1147h244l287 -941h10l290 941h235q-398 -1136 -400 -1141l-29 -79q-29 -79 -58 -132t-77 -106t-117.5 -79t-161.5 -26q-67 0 -129 10v171q29 -6 87 -6q98 0 148 43.5t71 130.5l17 55zM454 1324l206 301h227l-256 -301h-177z" />
<glyph unicode="&#xfe;" horiz-adv-x="1265" d="M158 1565h212l3 -599h10q33 85 121.5 142.5t219.5 57.5q67 0 125 -16t106 -45t86.5 -71.5t64.5 -97t40.5 -123t14.5 -145.5v-187q0 -233 -120.5 -365.5t-322.5 -132.5q-129 0 -210 52t-117 136h-10v-564h-221zM381 470q0 -87 34.5 -155.5t100 -107t148.5 -38.5t143.5 36 t96 115.5t35.5 195.5v115q0 171 -74 261t-205 90q-65 0 -117 -22.5t-88.5 -64.5t-55 -102t-18.5 -135v-188z" />
<glyph unicode="&#xff;" horiz-adv-x="1144" d="M33 1147h244l287 -941h10l290 941h235q-398 -1136 -400 -1141l-29 -79q-29 -79 -58 -132t-77 -106t-117.5 -79t-161.5 -26q-67 0 -129 10v171q29 -6 87 -6q98 0 148 43.5t71 130.5l17 55zM264 1376q0 48 31.5 80t79.5 32q50 0 80 -31t30 -81q0 -31 -13.5 -56t-39.5 -40 t-57 -15q-48 0 -79.5 31.5t-31.5 79.5zM660 1376q0 48 30 80t78 32q50 0 81 -31t31 -81q0 -31 -13.5 -56t-39.5 -40t-59 -15q-46 0 -77 31.5t-31 79.5z" />
<glyph unicode="&#x152;" horiz-adv-x="2131" d="M112 633v208q0 316 161.5 496t432.5 180q129 0 236 -46.5t163 -136.5h17v152h889v-194h-681v-443h641v-185h-641v-470h681v-194h-889v156h-15q-60 -87 -167.5 -137t-238.5 -50q-273 0 -431 176t-158 488zM341 631q0 -229 105.5 -348t277.5 -119q173 0 280 113.5 t107 340.5v244q0 229 -107 344.5t-280 115.5q-110 0 -195.5 -53.5t-136.5 -162.5t-51 -263v-212z" />
<glyph unicode="&#x153;" horiz-adv-x="1960" d="M104 495v159q0 233 140.5 373.5t363.5 140.5q125 0 226 -48t159 -140h14q54 85 153 136.5t218 51.5q214 0 348.5 -139.5t134.5 -372.5v-136h-750v-56q0 -133 74 -217.5t205 -84.5q94 0 158.5 38.5t79.5 95.5h220q-6 -52 -37 -104.5t-84.5 -101t-141 -79t-193.5 -30.5 q-127 0 -230 50t-155 136h-14q-37 -56 -96.5 -98t-133.5 -65t-155 -23q-229 0 -366.5 135.5t-137.5 378.5zM323 508q0 -156 74.5 -251t210 -95t208.5 95t73 251v133q0 154 -75 250t-206 96t-208 -96t-77 -250v-133zM1111 670h533v17q0 137 -72.5 219.5t-193.5 82.5 t-194 -82.5t-73 -219.5v-17z" />
<glyph unicode="&#x178;" horiz-adv-x="1205" d="M-6 1486h254l351 -649h9l356 649h247l-497 -868v-618h-223v616zM362 1723q0 44 28 72t70 28q29 0 51 -13.5t34.5 -35.5t12.5 -51q0 -21 -7.5 -38.5t-20 -31t-31 -21t-39.5 -7.5q-42 0 -70 28t-28 70zM699 1723q0 21 7.5 40t20 32.5t30 20.5t38.5 7q29 0 52 -13.5 t34.5 -35.5t11.5 -51q0 -42 -27 -70t-71 -28q-42 0 -69 28t-27 70z" />
<glyph unicode="&#x2c6;" horiz-adv-x="1028" d="M241 1311l234 325h143l223 -327h-177l-117 204h-6l-125 -202h-175z" />
<glyph unicode="&#x2dc;" horiz-adv-x="1028" d="M129 1355q0 106 51 179t149 73q83 0 162 -81q4 -4 15.5 -17t17 -17t15.5 -11t19.5 -10.5t20.5 -3.5q37 0 54.5 37.5t20.5 83.5h135q0 -100 -56.5 -177t-145.5 -77q-93 0 -160 73q0 2 -7.5 9.5l-8.5 8.5l-7 7t-8.5 7t-8.5 6.5t-9 6.5t-8.5 4t-10.5 5t-10.5 3t-11.5 1 q-67 0 -73 -110h-135z" />
<glyph unicode="&#x2000;" horiz-adv-x="950" />
<glyph unicode="&#x2001;" horiz-adv-x="1900" />
<glyph unicode="&#x2002;" horiz-adv-x="950" />
<glyph unicode="&#x2003;" horiz-adv-x="1900" />
<glyph unicode="&#x2004;" horiz-adv-x="633" />
<glyph unicode="&#x2005;" horiz-adv-x="475" />
<glyph unicode="&#x2006;" horiz-adv-x="316" />
<glyph unicode="&#x2007;" horiz-adv-x="316" />
<glyph unicode="&#x2008;" horiz-adv-x="237" />
<glyph unicode="&#x2009;" horiz-adv-x="380" />
<glyph unicode="&#x200a;" horiz-adv-x="105" />
<glyph unicode="&#x2010;" horiz-adv-x="855" d="M85 512v196h685v-196h-685z" />
<glyph unicode="&#x2011;" horiz-adv-x="855" d="M85 512v196h685v-196h-685z" />
<glyph unicode="&#x2012;" horiz-adv-x="855" d="M85 512v196h685v-196h-685z" />
<glyph unicode="&#x2013;" horiz-adv-x="1273" d="M0 512v196h1276v-196h-1276z" />
<glyph unicode="&#x2014;" horiz-adv-x="2229" d="M0 512v196h2229v-196h-2229z" />
<glyph unicode="&#x2018;" horiz-adv-x="622" d="M127 878l189 608h181l-122 -608h-248z" />
<glyph unicode="&#x2019;" horiz-adv-x="622" d="M127 878l121 608h249l-187 -608h-183z" />
<glyph unicode="&#x201a;" horiz-adv-x="622" d="M127 -493l121 607h249l-187 -607h-183z" />
<glyph unicode="&#x201c;" horiz-adv-x="1065" d="M127 878l131 608h196l-86 -608h-241zM618 878l131 608h192l-81 -608h-242z" />
<glyph unicode="&#x201d;" horiz-adv-x="1065" d="M127 878l79 608h244l-134 -608h-189zM612 878l87 608h242l-133 -608h-196z" />
<glyph unicode="&#x201e;" horiz-adv-x="1065" d="M127 -491l79 608h244l-134 -608h-189zM612 -491l87 608h242l-133 -608h-196z" />
<glyph unicode="&#x2022;" horiz-adv-x="1011" d="M169 658q0 139 97.5 238t237.5 99q139 0 238 -99t99 -238q0 -137 -99 -236t-238 -99q-92 0 -169 44.5t-121.5 121.5t-44.5 169z" />
<glyph unicode="&#x2026;" horiz-adv-x="1527" d="M135 121q0 40 19 73t51 51.5t72 18.5q62 0 104 -40.5t42 -102.5t-42 -101t-104 -39q-60 0 -101 39t-41 101zM612 121q0 40 18.5 73t51 51.5t71.5 18.5q62 0 105 -40.5t43 -102.5q0 -42 -19.5 -73t-53 -49t-75.5 -18q-60 0 -100.5 39t-40.5 101zM1089 121q0 62 41.5 102.5 t101.5 40.5q62 0 104 -40.5t42 -102.5q0 -42 -20 -73t-53 -49t-73 -18q-60 0 -101.5 40t-41.5 100z" />
<glyph unicode="&#x202f;" horiz-adv-x="380" />
<glyph unicode="&#x2039;" horiz-adv-x="869" d="M114 606v10l375 439h231l-370 -439v-6l370 -441h-241z" />
<glyph unicode="&#x203a;" horiz-adv-x="869" d="M131 169l369 441v6l-369 439h231l375 -439v-10l-367 -437h-239z" />
<glyph unicode="&#x205f;" horiz-adv-x="475" />
<glyph unicode="&#x20ac;" d="M33 506v145h129v167h-129v148h134q17 277 144.5 414t375.5 137q131 0 229 -43.5t153 -118.5t81 -164.5t26 -193.5h-219q0 323 -268 323q-148 0 -217.5 -83.5t-80.5 -270.5h362v-148h-366v-167h366v-145h-362q10 -187 78 -263t218 -76q81 0 137 22.5t83.5 67.5t38.5 94 t11 115h219q0 -62 -10.5 -119.5t-32.5 -114.5t-60.5 -104t-90.5 -82.5t-128 -56t-167 -20.5q-254 0 -379 130t-141 407h-134z" />
<glyph unicode="&#x2122;" horiz-adv-x="1912" d="M73 1351v135h670v-135h-258v-616h-158v616h-254zM935 735v751h164l250 -489h8l250 489h164v-751h-137v510h-13l-224 -446h-88l-227 446h-10v-510h-137z" />
<glyph unicode="&#x25fc;" horiz-adv-x="1144" d="M0 0v1145h1145v-1145h-1145z" />
<glyph unicode="&#xfb01;" horiz-adv-x="1450" d="M69 966v177h164v114q0 167 87.5 245t272.5 78q35 0 98 -7v-170q-50 4 -65 4q-92 0 -134 -36.5t-42 -130.5v-97h222v-177h-218v-966h-221v966h-164zM1020 1428q0 56 38.5 91.5t96.5 35.5q60 0 98.5 -35.5t38.5 -90.5t-38.5 -91.5t-98.5 -36.5q-37 0 -68.5 16.5t-49 46 t-17.5 64.5zM1047 0v1147h218v-1147h-218z" />
<glyph unicode="&#xfb02;" horiz-adv-x="1419" d="M69 966v177h164v114q0 167 87.5 245t272.5 78q35 0 98 -7v-170q-50 4 -65 4q-92 0 -134 -36.5t-42 -130.5v-97h222v-177h-218v-966h-221v966h-164zM1034 0v1565h221v-1565h-221z" />
</font>
</defs>
</svg>
