<?xml version="1.0" standalone="no"?>
<!DOCTYPE svg PUBLIC "-//W3C//DTD SVG 1.1//EN" "http://www.w3.org/Graphics/SVG/1.1/DTD/svg11.dtd" >
<svg xmlns="http://www.w3.org/2000/svg">
<metadata></metadata>
<defs>
<font id="san_francisco_displaybold" horiz-adv-x="1288" >
<font-face units-per-em="2048" ascent="1638" descent="-410" />
<missing-glyph horiz-adv-x="437" />
<glyph horiz-adv-x="0" />
<glyph unicode="&#xd;" horiz-adv-x="0" />
<glyph unicode=" "  horiz-adv-x="437" />
<glyph unicode="&#x09;" horiz-adv-x="437" />
<glyph unicode="&#xa0;" horiz-adv-x="437" />
<glyph unicode="!" horiz-adv-x="613" d="M123 135q0 71 51 114.5t134 43.5q85 0 135 -42.5t50 -115.5q0 -46 -23 -81t-64.5 -55t-97.5 -20t-97.5 20t-64.5 55t-23 81zM139 1486h338l-36 -1032h-266z" />
<glyph unicode="&#x22;" horiz-adv-x="1076" d="M102 1486h333l-40 -614h-256zM643 1486h335l-41 -614h-254z" />
<glyph unicode="#" horiz-adv-x="1346" d="M44 395l41 223h215l52 267h-204l43 220h207l74 381h234l-77 -381h237l75 381h233l-77 -381h223l-42 -220h-225l-54 -267h216l-43 -223h-217l-79 -395h-231l79 395h-237l-81 -395h-229l77 395h-210zM504 595h283l60 312h-279z" />
<glyph unicode="$" d="M79 429h260q4 -85 64.5 -143.5t168.5 -73.5v442l-91 22q-77 17 -140.5 48.5t-116.5 80t-83.5 119.5t-30.5 158q0 96 35.5 173t98 128t144.5 82t180 42v139h169v-141q131 -12 232 -68.5t158 -147t59 -203.5h-251q-2 75 -56.5 133.5t-145.5 72.5v-416l91 -21 q183 -42 286 -138.5t103 -275.5q0 -191 -129 -306.5t-349 -136.5v-137h-167v135q-127 8 -222.5 48.5t-152 102t-84.5 132.5t-30 150zM375 1103q0 -127 158 -181q29 -10 39 -12v382q-44 -4 -79 -19.5t-61 -38.5t-41.5 -57t-15.5 -74zM733 210q65 6 113.5 32t76.5 71t28 103 q0 75 -45.5 123t-145.5 79l-27 6v-414z" />
<glyph unicode="%" horiz-adv-x="1506" d="M-2 1111v34q0 156 88.5 257t236.5 101t234 -101t86 -259v-36q0 -152 -87.5 -257t-237.5 -105q-148 0 -234 103t-86 263zM67 -2l607 782l537 706h229l-599 -766l-548 -722h-226zM191 1122q0 -29 2.5 -54t8.5 -46t14.5 -37.5t20 -30t24 -22t28 -13.5t32.5 -5q58 0 93.5 54 t35.5 152v10q0 67 -16 112.5t-45 69.5t-68 24q-60 0 -95 -54t-35 -148v-12zM870 348v33q0 156 88.5 258t236.5 102t234 -101t86 -259v-36q0 -152 -86.5 -257t-237.5 -105q-148 0 -234.5 103.5t-86.5 261.5zM1064 358q0 -98 34 -152t93.5 -54t95 54t35.5 152v10 q0 98 -34.5 151t-94.5 53t-94.5 -53t-34.5 -149v-12z" />
<glyph unicode="&#x26;" horiz-adv-x="1481" d="M73 387q0 133 70.5 227t201.5 169q44 23 67 33q-92 96 -137.5 173t-45.5 166q0 150 120.5 247t297.5 97q171 0 291.5 -91t120.5 -249q0 -129 -81 -218.5t-218 -164.5l283 -308q52 96 52 292v77h247v-94q0 -285 -122 -456l274 -287h-333l-114 123q-177 -154 -458 -154 q-235 0 -375.5 113.5t-140.5 304.5zM350 410q0 -106 77 -165.5t191 -59.5q77 0 152 27t121 79l-342 371q-22 -13 -39 -21q-160 -89 -160 -231zM485 1141q0 -52 30 -101t107 -126q94 50 142 102t48 125q0 48 -21 84t-58.5 56t-83.5 20q-48 0 -85 -21t-58 -57.5t-21 -81.5z " />
<glyph unicode="'" horiz-adv-x="534" d="M102 1486h333l-40 -614h-256z" />
<glyph unicode="(" horiz-adv-x="745" d="M123 616q0 171 24 310.5t72.5 245.5t88.5 169.5t102 142.5h283q-40 -44 -79.5 -113.5t-82 -175.5t-69.5 -258t-27 -319q0 -112 11.5 -216t35.5 -194.5t44.5 -155t57 -139.5t53.5 -105.5t52 -92.5h-289q-277 343 -277 901z" />
<glyph unicode=")" horiz-adv-x="745" d="M54 1484h281q62 -79 102 -142.5t88.5 -169.5t73.5 -245.5t25 -310.5q0 -558 -281 -901h-287q52 89 82.5 149.5t77 179t70.5 263.5t24 311q0 98 -10.5 192.5t-26 170.5t-37.5 146t-44.5 124t-48.5 101t-47 78t-42 54z" />
<glyph unicode="*" horiz-adv-x="847" d="M83 1028l227 100l-227 100l86 148l199 -150l-29 248h171l-31 -248l202 150l85 -148l-227 -100l227 -100l-85 -146l-200 144l29 -243h-171l29 243l-199 -144z" />
<glyph unicode="+" d="M89 472v261h425v439h266v-439h427v-261h-427v-455h-266v455h-425z" />
<glyph unicode="," horiz-adv-x="495" d="M8 -287l106 589h298l-171 -589h-233z" />
<glyph unicode="-" horiz-adv-x="857" d="M85 475v270h687v-270h-687z" />
<glyph unicode="." horiz-adv-x="591" d="M117 152q0 77 51 125t128 48t129 -48t52 -125q0 -79 -52 -126t-129 -47q-50 0 -89.5 21t-64.5 60.5t-25 91.5z" />
<glyph unicode="/" horiz-adv-x="745" d="M-12 -314l501 1879h275l-500 -1879h-276z" />
<glyph unicode="0" horiz-adv-x="1302" d="M81 693v100q0 329 152 525.5t423 196.5t418.5 -194.5t147.5 -527.5v-100q0 -208 -62.5 -368.5t-193.5 -257t-317 -96.5q-271 0 -419.5 196.5t-148.5 525.5zM398 695q0 -229 67.5 -348.5t185.5 -119.5q79 0 136.5 52t88.5 158t31 258v98q0 227 -68.5 346.5t-187 119.5 t-186 -119.5t-67.5 -346.5v-98z" />
<glyph unicode="1" horiz-adv-x="922" d="M92 966v291q46 31 181 119.5t177 109.5h303v-1486h-310v1188h-12q-27 -17 -162.5 -104t-176.5 -118z" />
<glyph unicode="2" horiz-adv-x="1248" d="M98 1036v17q0 87 32 167.5t93.5 147t162.5 107t230 40.5q229 0 371.5 -118.5t142.5 -299.5q0 -40 -7 -77.5t-14.5 -64.5t-29.5 -64.5t-31 -55t-41.5 -57t-42 -50t-50 -54t-46.5 -50.5l-323 -360v-10h612v-254h-1038v196l535 574q54 56 81 89.5t56 91.5t29 115 q0 87 -60.5 142t-151.5 55q-96 0 -154.5 -60t-58.5 -148v-10.5v-8.5h-297z" />
<glyph unicode="3" horiz-adv-x="1275" d="M75 418h289q8 -89 78 -145.5t182 -56.5q121 0 191 60.5t67 156.5q0 94 -68.5 153t-191.5 59h-162v240h154q102 0 164.5 56t62.5 143q0 83 -62.5 136.5t-160.5 53.5q-102 0 -160 -59.5t-63 -138.5h-293q6 191 144.5 315t382.5 124q225 0 371.5 -109t148.5 -280 q2 -144 -83.5 -234.5t-183.5 -104.5v-13q42 -2 84.5 -17.5t84.5 -44.5t74 -70t52 -99t20 -127q2 -198 -166.5 -321.5t-412.5 -123.5q-133 0 -238 36.5t-169.5 99t-99 141.5t-36.5 170z" />
<glyph unicode="4" horiz-adv-x="1319" d="M73 268v254q48 92 103 190t115.5 202t110.5 185t121.5 199.5t111.5 187.5h451v-966h177v-252h-177v-268h-295v268h-718zM352 520h439v733h-13q-275 -439 -426 -729v-4z" />
<glyph unicode="5" horiz-adv-x="1319" d="M117 406h291q12 -87 83 -137t177 -50q104 0 184 74.5t80 197.5q0 121 -74.5 196t-189.5 75q-96 0 -160.5 -45t-93.5 -105h-277l69 876h924v-252h-674l-36 -368h13q31 48 115.5 88.5t200.5 40.5q131 0 242.5 -58.5t180 -171.5t68.5 -261q0 -160 -74.5 -283t-206 -187.5 t-299.5 -64.5q-248 0 -391.5 125t-151.5 310z" />
<glyph unicode="6" horiz-adv-x="1280" d="M83 714q0 383 158.5 591t434.5 208q114 0 209 -36.5t155.5 -95.5t94 -128t37.5 -140h-294q-8 60 -65 107.5t-145 47.5q-139 0 -215 -138.5t-74 -365.5h12q23 54 62.5 98.5t115.5 79t170 34.5q194 0 331 -130t137 -353q0 -241 -155 -381.5t-388 -140.5q-273 0 -427 192.5 t-154 550.5zM414 481q0 -121 72 -191.5t178 -70.5q104 0 173.5 69.5t69.5 192.5q0 121 -70.5 191.5t-174.5 70.5q-106 0 -177 -71.5t-71 -190.5z" />
<glyph unicode="7" horiz-adv-x="1207" d="M77 1232v254h1039v-258l-602 -1228h-331l622 1224v8h-728z" />
<glyph unicode="8" horiz-adv-x="1332" d="M81 410q0 56 13.5 106t37.5 88.5t55.5 68.5t66.5 51t70.5 34.5t70.5 21.5v9q-110 33 -181.5 116.5t-71.5 216.5q0 171 144.5 282t380.5 111t382 -111.5t146 -281.5q0 -133 -73 -216.5t-183 -116.5v-9q56 -12 108 -38t100 -68.5t77 -111.5t29 -152q0 -196 -161.5 -317.5 t-426.5 -121.5t-424.5 121.5t-159.5 317.5zM395 431q0 -69 35.5 -123t98 -83t139.5 -29q117 0 194 65.5t77 169.5q0 71 -35.5 125t-97 84t-138.5 30q-117 0 -195 -66.5t-78 -172.5zM441 1086q0 -92 64.5 -150t162.5 -58q62 0 114.5 26t81.5 74t29 108q0 89 -63.5 145.5 t-161.5 56.5t-162.5 -56t-64.5 -146z" />
<glyph unicode="9" horiz-adv-x="1280" d="M83 997q0 239 156 377.5t381 138.5q279 0 433 -189.5t154 -563.5q0 -368 -156 -577.5t-439 -209.5q-119 0 -217.5 37.5t-159 99t-94 132t-37.5 141.5h291q10 -67 72 -115.5t153 -48.5q102 0 171 72.5t97 184t24 250.5h-17q-27 -89 -117.5 -151.5t-236.5 -62.5 q-191 0 -324.5 129t-133.5 356zM383 1005q0 -123 68.5 -191.5t175 -68.5t178 73t71.5 185q0 83 -32 143.5t-88.5 91t-126.5 30.5q-104 0 -175 -70t-71 -193z" />
<glyph unicode=":" horiz-adv-x="616" d="M127 152q0 77 51 125t128 48q50 0 90.5 -22t64.5 -61.5t24 -89.5q0 -79 -51 -126t-128 -47q-75 0 -127 48t-52 125zM127 887q0 52 24 92.5t64.5 60t90.5 19.5q77 0 128 -47.5t51 -124.5t-51 -124t-128 -47q-50 0 -89.5 21t-64.5 60.5t-25 89.5z" />
<glyph unicode=";" horiz-adv-x="613" d="M65 -341l95 589h298l-160 -589h-233zM131 887q0 79 51 125.5t128 46.5t128 -47.5t51 -124.5t-51 -124t-128 -47q-75 0 -127 47t-52 124z" />
<glyph unicode="&#x3c;" d="M135 479v195l1016 558v-306l-662 -337v-12l662 -331v-300z" />
<glyph unicode="=" d="M129 244v241h1032v-241h-1032zM129 716v241h1032v-241h-1032z" />
<glyph unicode="&#x3e;" d="M135 -54v300l660 331v12l-660 337v306l1016 -558v-195z" />
<glyph unicode="?" horiz-adv-x="1067" d="M42 1070q-2 117 38.5 205t113 139t160 76t187.5 25q208 0 347.5 -103t139.5 -296q0 -69 -17.5 -123t-54 -97t-66.5 -69t-80 -61q-58 -42 -83.5 -60.5t-51.5 -49t-34 -60.5t-8 -74v-56h-273l-2 61q-10 119 39.5 203t151.5 152q62 44 91.5 68t52.5 62.5t23 86.5 q0 87 -55 132t-137 45q-65 0 -110.5 -28t-67 -74t-21.5 -104h-283zM318 135q0 48 23 83.5t64.5 55t98.5 19.5q33 0 62 -7t52 -20.5t38.5 -33.5t24 -44t8.5 -53q0 -71 -51 -113.5t-134 -42.5t-134.5 42.5t-51.5 113.5z" />
<glyph unicode="@" horiz-adv-x="1869" d="M100 543v56q0 383 239.5 616.5t617.5 233.5h9q191 0 348 -61.5t258 -166.5t156.5 -239.5t55.5 -282.5v-54q0 -223 -106.5 -361t-283.5 -138q-102 0 -177.5 42.5t-94.5 115.5h-11q-21 -71 -90.5 -114.5t-158.5 -43.5q-142 0 -224 95.5t-82 262.5v122q0 104 36.5 183.5 t107 123t164.5 43.5q98 0 156 -45.5t75 -106.5h8v135h208v-541q0 -52 31.5 -81t79.5 -29q71 0 120.5 89.5t49.5 262.5v31q0 121 -42.5 227t-121.5 186t-199 127t-261 47h-11q-146 0 -268.5 -49t-209 -137.5t-135 -217.5t-48.5 -283v-42q0 -135 34 -247.5t94.5 -189.5 t143.5 -130t177 -77t200 -24h8q202 0 310 46v-171q-102 -46 -320 -45h-11q-177 0 -328.5 55t-264 157t-176 261t-63.5 359zM780 535q0 -208 152 -208q150 0 150 195v90q0 65 -21.5 108.5t-55 62t-75.5 18.5q-71 0 -110.5 -51t-39.5 -155v-60z" />
<glyph unicode="A" horiz-adv-x="1381" d="M15 0l491 1486h374l489 -1486h-337l-108 368h-485l-110 -368h-314zM502 601h360l-171 590h-15z" />
<glyph unicode="B" horiz-adv-x="1377" d="M154 0v1486h633q202 0 323.5 -97t121.5 -267q0 -92 -36.5 -161.5t-92.5 -109t-129 -56.5v-12q142 -15 236.5 -109.5t94.5 -253.5q0 -198 -145.5 -309t-370.5 -111h-635zM466 231h210q308 0 308 210q0 71 -30 120t-87 74t-139 25h-262v-429zM466 874h188q268 0 268 194 q0 60 -27 102.5t-74 63.5t-109 21h-246v-381z" />
<glyph unicode="C" horiz-adv-x="1398" d="M94 658v166q0 327 166.5 509t461.5 182q268 0 429.5 -152t161.5 -376v-32h-301q0 123 -76 208.5t-212 85.5q-94 0 -163.5 -46t-108 -143t-38.5 -236v-168q0 -208 82.5 -313.5t229.5 -105.5q135 0 210.5 79t75.5 200h301v-31q0 -214 -159 -364t-432 -150q-298 0 -463 181 t-165 506z" />
<glyph unicode="D" horiz-adv-x="1452" d="M154 0v1486h556q177 0 306 -53t207 -153t115.5 -232t37.5 -300.5t-37.5 -302t-114.5 -234.5t-207 -156t-307 -55h-556zM468 254h196q191 0 290 112.5t99 374.5q0 87 -11.5 158t-39.5 134.5t-71.5 106t-111.5 67.5t-155 25h-196v-978z" />
<glyph unicode="E" horiz-adv-x="1232" d="M154 0v1486h970v-254h-658v-362h618v-237h-618v-379h658v-254h-970z" />
<glyph unicode="F" horiz-adv-x="1171" d="M154 0v1486h962v-256h-648v-397h589v-252h-589v-581h-314z" />
<glyph unicode="G" horiz-adv-x="1425" d="M94 656v185q0 204 76 356t221.5 235t345.5 83q96 0 179 -19.5t146.5 -55t114.5 -83.5t83 -105t51 -118.5t21 -128.5h-308q-12 117 -92.5 182.5t-198.5 65.5q-146 0 -233.5 -104t-87.5 -310v-183q0 -194 78 -308.5t247 -114.5q89 0 158 35.5t104 93.5t35 129v83h-291v231 h591v-293q0 -75 -19.5 -149t-65.5 -145.5t-112.5 -124.5t-171.5 -87.5t-232 -34.5q-162 0 -286 52t-200 144.5t-114.5 215.5t-38.5 273z" />
<glyph unicode="H" horiz-adv-x="1536" d="M154 0v1486h314v-599h600v599h316v-1486h-316v629h-600v-629h-314z" />
<glyph unicode="I" horiz-adv-x="622" d="M154 0v1486h314v-1486h-314z" />
<glyph unicode="J" horiz-adv-x="1178" d="M29 441h302q2 -58 27 -101.5t67.5 -65.5t96.5 -22q198 0 198 225v1009h316v-1003q0 -252 -136 -382t-374.5 -130t-367.5 135t-129 335z" />
<glyph unicode="K" horiz-adv-x="1384" d="M154 0v1486h314v-653h15l545 653h344l-527 -641l549 -845h-376l-402 635l-148 -167v-468h-314z" />
<glyph unicode="L" horiz-adv-x="1115" d="M154 0v1486h314v-1220h621v-266h-935z" />
<glyph unicode="M" horiz-adv-x="1783" d="M156 0v1486h323l410 -922h10l410 922h321v-1486h-283v962h-15l-341 -764h-198l-341 764h-15v-962h-281z" />
<glyph unicode="N" horiz-adv-x="1506" d="M154 0v1486h258l635 -953h10v953h298v-1486h-258l-637 959h-10v-959h-296z" />
<glyph unicode="O" horiz-adv-x="1475" d="M94 645v185q0 318 171.5 501.5t473.5 183.5t473.5 -184t171.5 -501v-185q0 -314 -171.5 -494t-475.5 -180q-200 0 -345.5 81t-221.5 233t-76 360zM414 645q0 -202 88.5 -307t236.5 -105t236.5 105t88.5 307v190q0 135 -43 230.5t-114.5 142.5t-167.5 47 q-148 0 -236.5 -109t-88.5 -311v-190z" />
<glyph unicode="P" horiz-adv-x="1313" d="M154 0v1486h606q96 0 178 -25t141 -70.5t102 -108t65 -138.5t22 -160q0 -219 -136.5 -358t-375.5 -139h-288v-487h-314zM466 728h167q156 0 235 58.5t79 197.5q0 121 -66.5 187.5t-187.5 66.5h-227v-510z" />
<glyph unicode="Q" horiz-adv-x="1479" d="M98 651v182q0 314 173.5 498t469.5 184q196 0 342.5 -83t224.5 -238t78 -361v-182q0 -337 -202 -522l185 -273h-308l-104 152q-100 -37 -216 -37q-296 0 -469.5 184t-173.5 496zM406 647q0 -210 89.5 -320.5t237.5 -114.5q44 0 83 15l-152 225h283l60 -84q71 108 71 279 v188q0 202 -92.5 311t-244.5 109q-73 0 -133.5 -27t-106 -78t-70.5 -132t-25 -183v-188z" />
<glyph unicode="R" horiz-adv-x="1381" d="M154 0v1486h606q256 0 392 -132t136 -342q0 -71 -17.5 -133.5t-45.5 -107.5t-64.5 -82.5t-71 -59t-69.5 -36.5l297 -593h-351l-256 547h-246v-547h-310zM464 776h246q77 0 134 26t88.5 78t31.5 125q0 77 -33.5 132.5t-88.5 81.5t-128 26h-250v-469z" />
<glyph unicode="S" horiz-adv-x="1323" d="M65 427h301q8 -87 85.5 -147.5t212.5 -60.5q127 0 197.5 53t70.5 140q0 75 -55 116.5t-171 68.5l-223 50q-175 37 -279 137.5t-104 279.5q0 210 158 331.5t404 121.5q164 0 291 -57t197 -158t70 -230h-294q-6 83 -74.5 141.5t-189.5 58.5q-114 0 -181 -50t-67 -136 q0 -129 202 -170l225 -50q89 -19 157 -49t125 -78t88.5 -123t31.5 -173q0 -219 -159.5 -345.5t-436.5 -126.5q-156 0 -273.5 40.5t-182 109t-94.5 145t-32 161.5z" />
<glyph unicode="T" horiz-adv-x="1178" d="M15 1224v262h1148v-262h-416v-1224h-314v1224h-418z" />
<glyph unicode="U" horiz-adv-x="1488" d="M137 516v970h315v-939q0 -98 36 -168.5t102 -105t155 -34.5q133 0 212 81.5t79 226.5v939h317v-972q0 -246 -165.5 -394.5t-442.5 -148.5t-442.5 150t-165.5 395z" />
<glyph unicode="V" horiz-adv-x="1371" d="M8 1486h365l318 -1136h12l315 1136h347l-485 -1486h-383z" />
<glyph unicode="W" horiz-adv-x="1918" d="M6 1486h337l215 -1041h12l256 1041h269l256 -1041h12l213 1041h339l-389 -1486h-292l-268 1003h-11l-268 -1003h-294z" />
<glyph unicode="X" horiz-adv-x="1302" d="M-8 0l455 749l-453 737h372l296 -524h12l294 524h356l-471 -745l462 -741h-358l-306 514h-12l-306 -514h-341z" />
<glyph unicode="Y" horiz-adv-x="1265" d="M-21 1486h348l306 -624h10l308 624h337l-497 -928v-558h-314v549z" />
<glyph unicode="Z" horiz-adv-x="1286" d="M92 0v204l703 1014v12h-687v256h1068v-204l-701 -1011v-15h722v-256h-1105z" />
<glyph unicode="[" horiz-adv-x="792" d="M123 -248v1734h595v-225h-302v-1286h317v-223h-610z" />
<glyph unicode="\" horiz-adv-x="745" d="M-12 1565h276l500 -1879h-275z" />
<glyph unicode="]" horiz-adv-x="792" d="M62 -25h317v1286h-302v225h595v-1734h-610v223z" />
<glyph unicode="^" horiz-adv-x="974" d="M40 866l320 620h260l317 -620h-265l-179 379h-12l-183 -379h-258z" />
<glyph unicode="_" horiz-adv-x="930" d="M-29 -112h991v-233h-991v233z" />
<glyph unicode="`" horiz-adv-x="1030" d="M187 1655h310l236 -317h-258z" />
<glyph unicode="a" horiz-adv-x="1202" d="M79 333q0 160 107 253t305 93h279v112q0 154 -177 154q-85 0 -131 -38.5t-52 -107.5h-287q2 77 29 141.5t80 118.5t146.5 85.5t220.5 31.5q219 0 347 -94.5t128 -298.5v-783h-289v146h-13q-23 -46 -61.5 -80.5t-104 -58.5t-146.5 -24q-171 0 -276 94t-105 256zM383 356 q0 -73 52 -113.5t127 -40.5q87 0 147.5 52t60.5 131v115h-206q-87 0 -134 -40t-47 -104z" />
<glyph unicode="b" horiz-adv-x="1311" d="M139 0v1565h308v-578h13q37 83 119.5 134t211.5 51q206 0 319.5 -141.5t113.5 -395.5v-111q0 -258 -115.5 -398.5t-319.5 -140.5q-127 0 -213.5 54.5t-119.5 139.5h-13v-179h-304zM447 529q0 -133 62 -217.5t172 -84.5q104 0 166.5 80t62.5 228v85q0 100 -28.5 171 t-79.5 105t-121 34q-71 0 -123 -36.5t-81.5 -106t-29.5 -161.5v-97z" />
<glyph unicode="c" horiz-adv-x="1167" d="M85 533v102q0 244 139.5 393.5t383.5 149.5q221 0 352 -118.5t133 -297.5h-281q-6 71 -58.5 124t-137.5 53q-108 0 -165.5 -85.5t-57.5 -222.5v-96q0 -144 59.5 -228t163.5 -84q94 0 141.5 45.5t58.5 118.5h281q-4 -189 -139.5 -298.5t-351.5 -109.5q-241 0 -381 148 t-140 406z" />
<glyph unicode="d" horiz-adv-x="1311" d="M87 520v119q0 248 114.5 390.5t320.5 142.5q127 0 213.5 -51t117.5 -134h11v578h308v-1565h-304v179h-11q-27 -83 -116.5 -138.5t-218.5 -55.5q-206 0 -320.5 143t-114.5 392zM402 541q0 -148 60 -231t171 -83q73 0 124 36.5t79 107t28 170.5v79q0 73 -15.5 131.5t-47 98 t-74 60t-96.5 20.5q-56 0 -99 -21.5t-72 -62.5t-43.5 -99t-14.5 -131v-75z" />
<glyph unicode="e" horiz-adv-x="1202" d="M85 533v89q0 173 64.5 300t182.5 191.5t274 64.5q244 0 380 -150t136 -404v-110h-737v-37q0 -114 62.5 -189.5t172.5 -75.5q89 0 143.5 40.5t62.5 103.5h287q-6 -65 -36 -127t-85 -120.5t-152 -94t-220 -35.5q-167 0 -287.5 64.5t-184 189.5t-63.5 300zM385 701h443v2 q0 110 -59 180t-161 70t-162.5 -69.5t-60.5 -180.5v-2z" />
<glyph unicode="f" horiz-adv-x="826" d="M56 910v235h173v114q0 175 94.5 252t302.5 77q58 0 132 -8v-215q-23 4 -71 4q-83 0 -121.5 -31t-38.5 -104v-89h220v-235h-214v-910h-304v910h-173z" />
<glyph unicode="g" horiz-adv-x="1286" d="M81 541v102q0 248 120 388.5t317 140.5q127 0 210.5 -51t116.5 -134h15v172h301v-1144q0 -96 -31 -173t-83 -127t-124 -83.5t-150 -47t-167 -13.5q-244 0 -370 102t-130 252h294q12 -60 67 -95.5t149 -35.5q119 0 179 62.5t60 178.5v163h-12q-33 -79 -120.5 -130 t-206.5 -51q-196 0 -315.5 139.5t-119.5 384.5zM395 539q0 -139 64.5 -217t171.5 -78q104 0 164 80t60 209v93q0 137 -61 220.5t-163 83.5q-108 0 -172 -80t-64 -224v-87z" />
<glyph unicode="h" horiz-adv-x="1315" d="M142 0v1565h305v-578h15q27 73 109.5 131t213.5 58q185 0 294 -117.5t109 -321.5v-737h-306v664q0 125 -58 188.5t-154 63.5q-102 0 -162.5 -65.5t-60.5 -188.5v-662h-305z" />
<glyph unicode="i" horiz-adv-x="620" d="M133 1451q0 65 49 107.5t128 42.5t128 -42t49 -108q0 -69 -48 -110.5t-129 -41.5t-129 42.5t-48 109.5zM158 0v1159h306v-1159h-306z" />
<glyph unicode="j" horiz-adv-x="620" d="M-54 -171q21 -4 62 -4q77 0 113.5 38.5t36.5 126.5v1169h304v-1171q0 -194 -105 -288.5t-288 -94.5q-81 0 -123 8v216zM133 1451q0 65 49 107.5t128 42.5t128 -42t49 -108q0 -69 -48 -110.5t-129 -41.5t-129 42.5t-48 109.5z" />
<glyph unicode="k" horiz-adv-x="1217" d="M139 0v1565h306v-882h15l368 476h344l-414 -501l443 -658h-356l-321 485l-79 -87v-398h-306z" />
<glyph unicode="l" horiz-adv-x="597" d="M146 0v1565h308v-1565h-308z" />
<glyph unicode="m" horiz-adv-x="1948" d="M137 0v1159h298v-172h17q17 48 52 88.5t101.5 70.5t152.5 30q127 0 209 -54t111 -148h15q19 52 62.5 95.5t119.5 75t169 31.5q175 0 275 -104t100 -279v-793h-306v703q0 54 -14.5 97t-39.5 69t-60.5 39.5t-78.5 13.5q-89 0 -142.5 -59.5t-53.5 -167.5v-695h-294v695 q0 117 -53 172t-140 55q-85 0 -139.5 -57t-54.5 -168v-697h-306z" />
<glyph unicode="n" horiz-adv-x="1309" d="M137 0v1159h298v-172h15q31 75 117.5 132t215.5 57q179 0 287 -108.5t108 -305.5v-762h-304v672q0 52 -11.5 94t-29 70t-44.5 46.5t-58.5 26t-68.5 7.5q-67 0 -116 -27t-76 -84.5t-27 -138.5v-666h-306z" />
<glyph unicode="o" horiz-adv-x="1240" d="M85 543v77q0 250 139.5 404t397.5 154t396.5 -152t138.5 -406v-75q0 -266 -137.5 -416t-397.5 -150t-398.5 149t-138.5 415zM393 543q0 -52 6.5 -96.5t23 -88.5t41.5 -75t65.5 -50t92.5 -19q225 0 225 329v73q0 329 -225 329q-65 0 -110.5 -27t-70.5 -75t-36.5 -104 t-11.5 -123v-73z" />
<glyph unicode="p" horiz-adv-x="1307" d="M137 -383v1542h304v-172h13q35 85 122.5 135t214.5 50q198 0 313.5 -138.5t115.5 -392.5v-125q0 -252 -115.5 -391.5t-315.5 -139.5q-125 0 -208.5 51t-122.5 135h-13v-554h-308zM445 529q0 -133 64 -217.5t170 -84.5q104 0 165 79t61 229v89q0 148 -61 227t-168 79 q-71 0 -122.5 -35t-80 -103t-28.5 -159v-104z" />
<glyph unicode="q" horiz-adv-x="1307" d="M87 516v129q0 248 116.5 387.5t318.5 139.5q125 0 212.5 -50t120.5 -135h13v172h302v-1544h-306v556h-13q-33 -85 -120.5 -135.5t-210.5 -50.5q-204 0 -318.5 140.5t-114.5 390.5zM402 533q0 -96 28 -165.5t80 -105t123 -35.5q108 0 169.5 84t61.5 220v93 q0 146 -62.5 226t-170.5 80t-168.5 -80t-60.5 -226v-91z" />
<glyph unicode="r" horiz-adv-x="857" d="M148 0v1159h306v-160h12q25 71 88.5 123t180.5 52q60 0 95 -8v-263q-37 10 -118 11q-250 0 -250 -263v-651h-314z" />
<glyph unicode="s" horiz-adv-x="1128" d="M73 327h295q8 -60 59.5 -100t134.5 -40q50 0 87.5 11.5t60.5 30.5t33 43t10 53q0 17 -4 32.5t-14.5 26.5t-21 20.5t-31 18t-33 12.5t-41.5 11.5t-42.5 9.5t-48 8t-49.5 11q-67 12 -118.5 28.5t-101.5 43.5t-82.5 61.5t-51 87.5t-18.5 118q0 96 37.5 167.5t104 113 t149.5 62.5t181 21q206 0 327 -94.5t121 -259.5h-271q-6 60 -50 104t-133 44q-81 0 -128 -36.5t-47 -96.5q0 -23 8.5 -43t30 -34.5t38.5 -24t54.5 -18.5t54 -12.5t61.5 -10.5t55 -9q175 -29 268.5 -104t93.5 -223q0 -179 -133 -280t-369 -101q-223 0 -349.5 96t-126.5 252z " />
<glyph unicode="t" horiz-adv-x="822" d="M50 910v235h173v287h297v-287h223v-235h-223v-537q0 -81 37.5 -113.5t125.5 -32.5q52 0 64 2v-225q-54 -10 -139 -10q-214 0 -303 77t-89 258v581h-166z" />
<glyph unicode="u" horiz-adv-x="1307" d="M131 393v766h306v-684q0 -127 59.5 -180.5t150.5 -53.5q96 0 156.5 61.5t60.5 176.5v680h306v-1159h-298v173h-15q-29 -77 -114 -133.5t-219 -56.5q-89 0 -161 26t-124 76t-80 129t-28 179z" />
<glyph unicode="v" horiz-adv-x="1150" d="M12 1159h333l217 -878h12l244 878h323l-404 -1159h-344z" />
<glyph unicode="w" horiz-adv-x="1723" d="M21 1159h320l163 -843h10l208 843h287l213 -843h12l165 843h306l-300 -1159h-319l-216 812h-8l-213 -812h-322z" />
<glyph unicode="x" horiz-adv-x="1190" d="M29 1159h354l210 -383h13l216 383h337l-376 -574l368 -585h-341l-215 383h-12l-217 -383h-324l356 577z" />
<glyph unicode="y" horiz-adv-x="1194" d="M21 1159h337l233 -901h13l239 901h325q-368 -1105 -373 -1119l-29 -80q-33 -87 -70.5 -148.5t-94 -114.5t-139.5 -80t-194 -27q-106 0 -166 12v219q35 -8 96 -8q102 0 148.5 37.5t59.5 112.5l10 37z" />
<glyph unicode="z" horiz-adv-x="1094" d="M92 0v171l541 739v14h-533v235h903v-189l-522 -720v-15h537v-235h-926z" />
<glyph unicode="{" horiz-adv-x="874" d="M96 497v277q102 0 137 50t35 165v195q0 210 107.5 297.5t340.5 87.5h108v-220h-44q-129 0 -174.5 -47t-45.5 -166v-247q0 -114 -54.5 -171t-162.5 -67v-31q216 -19 217 -256v-270q0 -81 18.5 -126t66.5 -66t135 -21h44v-222h-108q-231 0 -339.5 91.5t-108.5 303.5v227 q0 117 -35 166.5t-137 49.5z" />
<glyph unicode="|" horiz-adv-x="772" d="M250 -325v1890h274v-1890h-274z" />
<glyph unicode="}" horiz-adv-x="876" d="M52 -119h46q127 0 173.5 47t46.5 166v270q1 237 215 256v31q-71 6 -118 32.5t-72 77.5t-25 128v247q0 119 -46.5 166t-173.5 47h-46v220h108q156 0 251 -36.5t146 -121.5t51 -227v-195q0 -114 36.5 -164.5t138.5 -50.5v-277q-102 0 -138.5 -49.5t-36.5 -166.5v-227 q0 -144 -50 -231t-147 -125.5t-251 -38.5h-108v222z" />
<glyph unicode="~" horiz-adv-x="1213" d="M62 556q0 191 80.5 307.5t246.5 116.5q125 0 244 -106q40 -33 57.5 -48.5t48.5 -31.5t60 -16q117 0 125 169h225q0 -189 -83.5 -308t-245.5 -119q-119 0 -243 109q-6 4 -25 19.5t-25.5 20.5t-22 17.5t-25 17t-23 11.5t-25 9t-21.5 2q-114 0 -123 -170h-225z" />
<glyph unicode="&#xa1;" horiz-adv-x="613" d="M123 1047q0 71 50 114.5t133 43.5q85 0 135 -43.5t50 -114.5q0 -48 -22 -83.5t-64.5 -55t-98.5 -19.5q-83 0 -133 43.5t-50 114.5zM137 -302l38 1033h264l36 -1033h-338z" />
<glyph unicode="&#xa2;" d="M114 670v154q0 216 120 350.5t297 155.5v246h231v-248q167 -19 273 -134.5t108 -263.5h-275q-4 42 -28 81.5t-76 68.5t-121 29q-56 0 -103 -20.5t-78 -59t-47.5 -90.5t-16.5 -115v-156q0 -133 67.5 -211t179.5 -78q100 0 158.5 48t68.5 118h275q-2 -156 -111.5 -265 t-273.5 -126v-243h-231v241q-179 19 -298 154t-119 364z" />
<glyph unicode="&#xa3;" d="M85 635v208h190v266q0 187 124.5 295.5t341.5 108.5q219 0 342.5 -107t127.5 -309h-287q-4 75 -51 121.5t-130 46.5q-87 0 -133 -53t-46 -138v-231h316v-208h-316l-2 -154q-2 -175 -92 -217v-16h748v-248h-1118v256q85 8 130 58t45 177v144h-190z" />
<glyph unicode="&#xa4;" d="M75 289l177 177q-71 110 -71 242q0 129 67 237l-173 173l154 154l173 -173q110 71 243 71q129 0 240 -69l170 171l154 -154l-170 -171q67 -110 66 -239q0 -131 -71 -244l175 -175l-154 -154l-175 177q-108 -67 -235 -66q-131 0 -239 68l-177 -179zM408 708 q0 -98 69.5 -167t167.5 -69q96 0 165.5 69t69.5 167t-69.5 167.5t-165.5 69.5q-48 0 -92.5 -19t-76 -51t-50 -75.5t-18.5 -91.5z" />
<glyph unicode="&#xa5;" d="M-10 1486h347l306 -624h13l306 624h339l-414 -766h231v-191h-315v-129h315v-190h-315v-210h-314v210h-310v190h310v129h-310v191h223z" />
<glyph unicode="&#xa6;" horiz-adv-x="630" d="M179 -325v739h275v-739h-275zM179 849v716h275v-716h-275z" />
<glyph unicode="&#xa7;" horiz-adv-x="1013" d="M58 81h254q10 -65 59 -103t133 -38q89 0 134 40.5t45 98.5q0 29 -13.5 52t-31.5 37.5t-54.5 29t-61.5 23t-77 23.5q-33 8 -50 12q-75 23 -128 46t-103 61.5t-74.5 93.5t-24.5 128q0 175 181 275v8q-173 100 -173 281q0 175 127 270.5t316 95.5q129 0 227 -44.5t150 -126 t52 -185.5h-252q-4 56 -54 101t-129 45q-73 0 -117.5 -38.5t-44.5 -100.5q0 -29 14.5 -54.5t33 -41t58 -31t65.5 -23t78 -19.5q23 -6 34 -10q73 -19 123.5 -40t104 -57.5t80.5 -93.5t27 -132q0 -177 -169 -291v-9q77 -46 118.5 -104t41.5 -154q0 -171 -123.5 -275 t-329.5 -104q-96 0 -177 24t-140.5 70t-94 112.5t-34.5 147.5zM329 624q0 -69 48 -105t137 -59q15 -4 43 -10.5t36 -8.5q46 21 76 68t30 99q0 48 -25 82t-63.5 54t-98.5 32q-8 4 -69 15q-46 -17 -80 -63.5t-34 -103.5z" />
<glyph unicode="&#xa8;" horiz-adv-x="1030" d="M156 1451q0 60 36.5 96.5t98.5 36.5q60 0 98 -36.5t38 -96.5q0 -58 -37.5 -94.5t-98.5 -36.5q-31 0 -56 10t-42.5 27t-27 41t-9.5 53zM595 1451q0 60 37.5 96.5t95.5 36.5q42 0 73.5 -16.5t48 -47t16.5 -69.5q0 -58 -37.5 -94.5t-100.5 -36.5q-29 0 -54 10t-42.5 27 t-27 41t-9.5 53z" />
<glyph unicode="&#xa9;" horiz-adv-x="1785" d="M114 701v113q0 206 100 376.5t280 269.5t405 99q169 0 315.5 -59.5t248.5 -159.5t161.5 -237t59.5 -289v-113q0 -335 -220 -552.5t-565 -217.5t-565 217.5t-220 552.5zM262 699q0 -275 176 -449.5t461 -174.5t463 175t178 449v115q0 254 -180 427.5t-461 173.5 q-139 0 -259 -46.5t-203 -128t-129 -191.5t-46 -235v-115zM527 689v106q0 85 29 154t80 114.5t119.5 69.5t149.5 24q102 0 183.5 -41.5t124 -108t44.5 -143.5h-191q-4 48 -44 86.5t-115 38.5q-183 0 -183 -200v-102q0 -65 25 -108.5t64.5 -62.5t93.5 -19q73 0 113.5 29.5 t49.5 79.5h189q-4 -119 -98.5 -201t-255.5 -82q-167 0 -272.5 96.5t-105.5 269.5z" />
<glyph unicode="&#xaa;" horiz-adv-x="718" d="M44 1016q0 92 63.5 143.5t190.5 51.5h158v52q0 77 -96 77q-85 0 -96 -58h-189q10 202 289 202q298 0 298 -225v-429h-196v80h-10q-44 -90 -177 -90q-110 0 -172.5 52t-62.5 144zM248 1030q0 -35 27.5 -54t69.5 -19q46 0 78.5 24t32.5 64v54h-106q-102 0 -102 -69z" />
<glyph unicode="&#xab;" horiz-adv-x="1411" d="M100 606v10l375 439h283l-371 -439v-6l371 -441h-294zM649 606v10l375 439h283l-368 -439v-6l368 -441h-291z" />
<glyph unicode="&#xac;" d="M87 468v246h1110v-620h-267v374h-843z" />
<glyph unicode="&#xad;" horiz-adv-x="857" d="M85 475v270h687v-270h-687z" />
<glyph unicode="&#xae;" horiz-adv-x="1261" d="M81 978v77q0 214 157 362t391 148q233 0 390 -148.5t157 -361.5v-77q0 -227 -154 -376.5t-393 -149.5q-156 0 -282 67.5t-196 188t-70 270.5zM204 978q0 -175 120.5 -291.5t305 -116.5t305 116.5t120.5 291.5v75q0 164 -121.5 280t-304 116t-304 -115.5t-121.5 -280.5 v-75zM418 758v524h263q56 0 98.5 -22t64.5 -60.5t22 -86.5q0 -56 -29 -99.5t-73 -56.5l118 -199h-143l-104 185h-86v-185h-131zM549 1041h84q96 0 95 72q0 33 -22.5 52t-62.5 19h-94v-143z" />
<glyph unicode="&#xaf;" horiz-adv-x="1030" d="M194 1369v159h643v-159h-643z" />
<glyph unicode="&#xb0;" horiz-adv-x="609" d="M33 1236q0 114 79 192.5t196 78.5q75 0 137.5 -35.5t98 -98t35.5 -137.5q0 -114 -79.5 -193t-191.5 -79q-77 0 -139.5 36t-99 98.5t-36.5 137.5zM191 1236q0 -48 34.5 -82t82.5 -34t81.5 34t33.5 82q0 50 -33.5 83.5t-81.5 33.5t-82.5 -33.5t-34.5 -83.5z" />
<glyph unicode="&#xb1;" d="M117 699v231h393v250h264v-250h398v-231h-398v-268h-264v268h-393zM119 69v239h1055v-239h-1055z" />
<glyph unicode="&#xb2;" horiz-adv-x="703" d="M60 1249v14q0 98 73 170t215 72q127 0 204 -61.5t77 -157.5q0 -48 -25 -96.5t-46 -71.5t-54 -54q-8 -6 -11 -11l-143 -127v-4h289v-162h-560v125l264 253q83 79 84 130q0 33 -25 56t-61 23q-25 0 -44.5 -11.5t-29 -30.5t-9.5 -40v-16h-198z" />
<glyph unicode="&#xb3;" horiz-adv-x="718" d="M56 978h192q0 -35 26 -57t71 -22q46 0 75.5 23t29.5 56q0 35 -27.5 57t-72.5 22h-84v148h82q21 0 38.5 6.5t28 16.5t16.5 23.5t6 30.5q0 21 -11.5 37.5t-31 26t-46.5 9.5q-29 0 -51 -11.5t-31.5 -29t-11.5 -40.5h-189q4 106 79 168.5t208 62.5q129 0 204 -54t75 -142 q0 -65 -41 -109.5t-99 -56.5v-7q46 -6 81.5 -24.5t58.5 -56t23 -87.5q0 -106 -87.5 -164.5t-214.5 -58.5q-142 0 -218 67.5t-78 165.5z" />
<glyph unicode="&#xb4;" horiz-adv-x="1030" d="M231 1334l227 321h308l-277 -321h-258z" />
<glyph unicode="&#xb6;" horiz-adv-x="1546" d="M100 984q0 108 31 196t82 144t119 93.5t137.5 53t142.5 15.5h310v-1715h-289v708h-23q-87 0 -176 31t-164.5 91.5t-122.5 160.5t-47 222zM1099 -229v1715h289v-1715h-289z" />
<glyph unicode="&#xb7;" horiz-adv-x="661" d="M135 828q0 77 51 125t128 48q50 0 90.5 -22t64.5 -61.5t24 -89.5q0 -79 -51 -125.5t-128 -46.5t-128 46.5t-51 125.5z" />
<glyph unicode="&#xb8;" horiz-adv-x="1030" d="M348 -370q52 -17 120 -17q119 0 119 66q0 37 -32.5 51t-109.5 14h-58v112l56 150h175l-50 -133q62 0 109 -22t73 -63.5t26 -99.5q0 -104 -72.5 -157t-197.5 -55q-94 -2 -158 16v138z" />
<glyph unicode="&#xb9;" horiz-adv-x="609" d="M85 1186v177l179 123h208v-726h-208v543h-10z" />
<glyph unicode="&#xba;" horiz-adv-x="732" d="M42 1120v58q0 137 88 221.5t236 84.5q75 0 135.5 -22t102 -61.5t64.5 -95.5t23 -127v-56q0 -98 -39.5 -167.5t-112.5 -106t-173 -36.5t-172.5 35t-112 105t-39.5 168zM246 1118q0 -69 29 -112.5t91 -43.5t91.5 43.5t29.5 112.5v60q0 71 -30.5 113.5t-90.5 42.5t-90 -42.5 t-30 -113.5v-60z" />
<glyph unicode="&#xbb;" horiz-adv-x="1411" d="M104 169l371 441v6l-371 439h283l375 -439v-10l-364 -437h-294zM656 169l368 441v6l-368 439h283l374 -439v-10l-364 -437h-293z" />
<glyph unicode="&#xbc;" horiz-adv-x="1515" d="M10 1186v177l177 123h211v-726h-211v543h-8zM52 -2l608 782l537 706h227l-598 -766l-547 -722h-227zM866 114v148q93 175 268 462h279v-460h88v-150h-88v-114h-185v114h-362zM1045 264h183v315h-8q-87 -142 -175 -313v-2z" />
<glyph unicode="&#xbd;" horiz-adv-x="1525" d="M10 1186v177l177 123h211v-726h-211v543h-8zM52 -2l608 782l537 706h227l-598 -766l-547 -722h-227zM953 483v14q0 44 17 85.5t50 78t90.5 57.5t132.5 21q129 0 206 -61.5t77 -157.5q0 -19 -3.5 -35.5t-6.5 -31t-11.5 -30t-14.5 -26t-16.5 -25t-16.5 -22t-18.5 -21 t-18 -17.5t-17 -15.5t-13.5 -11.5l-145 -129v-6h293v-162h-566v126l266 254q83 79 84 132q0 33 -24 56t-62 23q-37 0 -61 -24t-24 -58v-14h-198z" />
<glyph unicode="&#xbe;" horiz-adv-x="1571" d="M8 964h192q2 -35 27 -57t71 -22q48 0 77 22.5t29 58.5q0 33 -27 56t-75 23h-83v148h81q29 0 49.5 10t31 28t10.5 39q0 33 -25 52.5t-66 19.5q-44 0 -67 -22.5t-25 -58.5h-193q4 108 80 170.5t211 62.5q85 0 148.5 -23.5t98 -68.5t34.5 -103q0 -67 -41.5 -111.5 t-100.5 -57.5v-6q73 -8 119 -51t46 -120q0 -106 -88.5 -164t-215.5 -58q-75 0 -133.5 19.5t-93.5 53t-53 74t-18 86.5zM106 -2l610 782l537 706h227l-598 -766l-547 -722h-229zM922 114v148q93 175 266 462h283v-460h86v-150h-86v-114h-187v114h-362zM1101 264h183v315h-8 q-81 -131 -175 -313v-2z" />
<glyph unicode="&#xbf;" horiz-adv-x="1067" d="M42 58q0 67 17.5 122t53 98t65.5 69t80 61q108 75 142.5 117.5t34.5 125.5v55h275l2 -61q8 -117 -42 -202t-150 -152q-62 -44 -91 -67.5t-53 -63t-24 -87.5q0 -87 56 -131t137 -44q96 0 147 57t53 149h281q4 -117 -36.5 -206t-114.5 -140t-161.5 -76t-184.5 -25 q-208 0 -347.5 104t-139.5 297zM381 1036q0 71 50 115t133 44q58 0 100 -20t64.5 -55.5t22.5 -83.5q0 -71 -51 -113.5t-136 -42.5q-81 0 -132 43t-51 113z" />
<glyph unicode="&#xc0;" horiz-adv-x="1381" d="M15 0l491 1486h374l489 -1486h-337l-108 368h-485l-110 -368h-314zM260 1871h302l285 -233h-254zM502 601h360l-171 590h-15z" />
<glyph unicode="&#xc1;" horiz-adv-x="1381" d="M15 0l491 1486h374l489 -1486h-337l-108 368h-485l-110 -368h-314zM502 601h360l-171 590h-15zM516 1638l296 241h314l-343 -241h-267z" />
<glyph unicode="&#xc2;" horiz-adv-x="1381" d="M15 0l491 1486h374l489 -1486h-337l-108 368h-485l-110 -368h-314zM302 1628l293 266h206l285 -266h-239l-144 139h-14l-150 -139h-237zM502 601h360l-171 590h-15z" />
<glyph unicode="&#xc3;" horiz-adv-x="1381" d="M15 0l491 1486h374l489 -1486h-337l-108 368h-485l-110 -368h-314zM358 1619q0 94 52 164.5t150 70.5q54 0 90.5 -16.5t75.5 -51.5q4 -4 21 -19t23 -20t19.5 -10t26.5 -5q23 0 39.5 17.5t23 40.5t8.5 48h156q0 -98 -59.5 -170t-148.5 -72q-62 0 -95 15t-66 46 q-4 4 -12 11t-13.5 12.5t-14 11.5t-14.5 10.5t-15.5 6.5t-19.5 2q-67 0 -71 -92h-156zM502 601h360l-171 590h-15z" />
<glyph unicode="&#xc4;" horiz-adv-x="1381" d="M15 0l491 1486h374l489 -1486h-337l-108 368h-485l-110 -368h-314zM389 1721q0 54 33.5 86.5t89.5 32.5t88.5 -32.5t32.5 -86.5q0 -35 -14.5 -61t-42 -41.5t-64.5 -15.5q-54 0 -88.5 33t-34.5 85zM502 601h360l-171 590h-15zM780 1721q0 54 32.5 86.5t88.5 32.5 t89.5 -32.5t33.5 -86.5q0 -52 -33.5 -85t-89.5 -33t-88.5 33t-32.5 85z" />
<glyph unicode="&#xc5;" horiz-adv-x="1384" d="M15 0l466 1403q-89 75 -89.5 197.5t86 206t209.5 83.5t209 -83.5t86 -205.5q0 -110 -79 -186l469 -1415h-340l-108 368h-485l-110 -368h-314zM502 601h362l-173 590h-15zM564 1598q0 -50 35.5 -85t87.5 -35q33 0 61 15.5t45 43.5t17 61q0 52 -35.5 86.5t-87.5 34.5 t-87.5 -34.5t-35.5 -86.5z" />
<glyph unicode="&#xc6;" horiz-adv-x="2066" d="M8 0l714 1486h1237v-254h-654v-362h614v-237h-614v-379h654v-254h-966v368h-460l-179 -368h-346zM635 610h358v622h-73z" />
<glyph unicode="&#xc7;" horiz-adv-x="1398" d="M94 658v166q0 327 166.5 509t461.5 182q268 0 429.5 -152t161.5 -376v-32h-301q0 123 -76 208.5t-212 85.5q-94 0 -163.5 -46t-108 -142.5t-38.5 -236.5v-168q0 -208 82.5 -313.5t229.5 -105.5q135 0 210.5 79t75.5 200h301v-31q0 -194 -134 -339.5t-369 -168.5l-42 -104 q62 0 110 -22t73 -63.5t25 -99.5q0 -104 -71.5 -157t-198.5 -55q-89 -2 -159 16v138q52 -17 121 -17q119 0 119 66q0 37 -32.5 51t-107.5 14h-60v112l46 119q-171 19 -291.5 104t-184 232t-63.5 347z" />
<glyph unicode="&#xc8;" horiz-adv-x="1232" d="M154 0v1486h970v-254h-658v-362h618v-237h-618v-379h658v-254h-970zM196 1871h304l283 -233h-254z" />
<glyph unicode="&#xc9;" horiz-adv-x="1232" d="M154 0v1486h970v-254h-658v-362h618v-237h-618v-379h658v-254h-970zM452 1638l295 241h317l-346 -241h-266z" />
<glyph unicode="&#xca;" horiz-adv-x="1232" d="M154 0v1486h970v-254h-658v-362h618v-237h-618v-379h658v-254h-970zM237 1628l294 266h206l285 -266h-237l-146 139h-15l-149 -139h-238z" />
<glyph unicode="&#xcb;" horiz-adv-x="1232" d="M154 0v1486h970v-254h-658v-362h618v-237h-618v-379h658v-254h-970zM327 1721q0 35 14.5 62.5t42.5 42t66 14.5q35 0 63 -14.5t42.5 -41.5t14.5 -63q0 -52 -33 -85t-87 -33q-56 0 -89.5 33t-33.5 85zM716 1721q0 54 33.5 86.5t87.5 32.5q56 0 89 -32.5t33 -86.5 q0 -52 -33 -85t-89 -33q-54 0 -87.5 33t-33.5 85z" />
<glyph unicode="&#xcc;" horiz-adv-x="622" d="M-121 1871h302l285 -233h-256zM154 0v1486h314v-1486h-314z" />
<glyph unicode="&#xcd;" horiz-adv-x="622" d="M135 1638l296 241h314l-343 -241h-267zM154 0v1486h314v-1486h-314z" />
<glyph unicode="&#xce;" horiz-adv-x="622" d="M-79 1628l293 266h206l286 -266h-240l-143 139h-15l-150 -139h-237zM154 0v1486h314v-1486h-314z" />
<glyph unicode="&#xcf;" horiz-adv-x="622" d="M8 1721q0 35 16 62.5t43 42t64 14.5t64.5 -14.5t42 -41.5t14.5 -63q0 -52 -32.5 -85t-88.5 -33q-54 0 -88.5 33t-34.5 85zM154 0v1486h314v-1486h-314zM398 1721q0 54 33 86.5t89 32.5q54 0 88.5 -32.5t34.5 -86.5q0 -52 -33 -85t-90 -33q-37 0 -64 15.5t-42.5 41.5 t-15.5 61z" />
<glyph unicode="&#xd0;" horiz-adv-x="1550" d="M73 618v271h179v597h556q177 0 307 -53t207 -153t114.5 -232t37.5 -300.5t-36.5 -302t-114.5 -234.5t-208 -156t-307 -55h-556v618h-179zM566 262h196q191 0 289 111.5t98 373.5q0 110 -19 195.5t-61.5 154.5t-120.5 105t-186 36h-196v-349h256v-271h-256v-356z" />
<glyph unicode="&#xd1;" horiz-adv-x="1506" d="M154 0v1486h258l635 -953h10v953h298v-1486h-258l-637 959h-10v-959h-296zM418 1619q0 94 53 164.5t151 70.5q54 0 89.5 -16.5t75.5 -51.5q6 -4 22.5 -19t23 -20t19 -10t24.5 -5q35 0 52 32t19 74h156q0 -98 -58 -170t-150 -72q-60 0 -93.5 15t-64.5 46q-4 2 -15.5 13.5 t-18 16.5t-15.5 11.5t-19.5 9.5t-21.5 3q-69 0 -73 -92h-156z" />
<glyph unicode="&#xd2;" horiz-adv-x="1475" d="M94 645v185q0 318 171.5 501.5t473.5 183.5t473.5 -184t171.5 -501v-185q0 -314 -171.5 -494t-475.5 -180q-200 0 -345.5 81t-221.5 233t-76 360zM306 1871h302l285 -233h-254zM414 645q0 -202 88.5 -307t236.5 -105t236.5 105t88.5 307v190q0 135 -43 230.5 t-114.5 142.5t-167.5 47q-148 0 -236.5 -109t-88.5 -311v-190z" />
<glyph unicode="&#xd3;" horiz-adv-x="1475" d="M94 645v185q0 318 171.5 501.5t473.5 183.5t473.5 -184t171.5 -501v-185q0 -314 -171.5 -494t-475.5 -180q-200 0 -345.5 81t-221.5 233t-76 360zM414 645q0 -202 88.5 -307t236.5 -105t236.5 105t88.5 307v190q0 135 -43 230.5t-114.5 142.5t-167.5 47 q-148 0 -236.5 -109t-88.5 -311v-190zM562 1638l295 241h315l-344 -241h-266z" />
<glyph unicode="&#xd4;" horiz-adv-x="1475" d="M94 645v185q0 318 171.5 501.5t473.5 183.5t473.5 -184t171.5 -501v-185q0 -314 -171.5 -494t-475.5 -180q-200 0 -345.5 81t-221.5 233t-76 360zM348 1628l293 266h206l285 -266h-239l-144 139h-14l-150 -139h-237zM414 645q0 -202 88.5 -307t236.5 -105t236.5 105 t88.5 307v190q0 135 -43 230.5t-114.5 142.5t-167.5 47q-148 0 -236.5 -109t-88.5 -311v-190z" />
<glyph unicode="&#xd5;" horiz-adv-x="1475" d="M94 645v185q0 318 171.5 501.5t473.5 183.5t473.5 -184t171.5 -501v-185q0 -314 -171.5 -494t-475.5 -180q-200 0 -345.5 81t-221.5 233t-76 360zM404 1619q0 94 52 164.5t150 70.5q54 0 90.5 -16.5t75.5 -51.5q6 -4 17.5 -15.5t18 -17t16 -11.5t18.5 -8t20 -2 q35 0 51.5 32t18.5 74h157q0 -98 -59.5 -170t-149.5 -72q-62 0 -94.5 15t-65.5 46q-4 2 -14.5 13.5t-16.5 16.5t-16.5 11.5t-20 9.5t-21.5 3q-67 0 -71 -92h-156zM414 645q0 -202 88.5 -307t236.5 -105t236.5 105t88.5 307v190q0 135 -43 230.5t-114.5 142.5t-167.5 47 q-148 0 -236.5 -109t-88.5 -311v-190z" />
<glyph unicode="&#xd6;" horiz-adv-x="1475" d="M94 645v185q0 318 171.5 501.5t473.5 183.5t473.5 -184t171.5 -501v-185q0 -314 -171.5 -494t-475.5 -180q-200 0 -345.5 81t-221.5 233t-76 360zM414 645q0 -202 88.5 -307t236.5 -105t236.5 105t88.5 307v190q0 135 -43 230.5t-114.5 142.5t-167.5 47 q-148 0 -236.5 -109t-88.5 -311v-190zM435 1721q0 35 15.5 62.5t42.5 42t65 14.5q37 0 64 -14.5t42 -41.5t15 -63q0 -52 -32.5 -85t-88.5 -33q-54 0 -88.5 33t-34.5 85zM824 1721q0 54 33.5 86.5t89.5 32.5q54 0 88.5 -32.5t34.5 -86.5q0 -52 -33.5 -85t-89.5 -33t-89.5 33 t-33.5 85z" />
<glyph unicode="&#xd7;" d="M129 254l329 329l-329 329l187 189l329 -331l329 331l187 -189l-328 -329l328 -329l-187 -189l-329 330l-329 -330z" />
<glyph unicode="&#xd8;" horiz-adv-x="1475" d="M83 81l121 148q-110 167 -110 416v185q0 318 171.5 501.5t473.5 183.5q246 0 406 -129l95 119l142 -104l-114 -140q117 -173 116 -431v-185q0 -314 -171.5 -494t-475.5 -180q-250 0 -410 131l-106 -133zM406 641q0 -83 21 -139l537 664q-87 94 -227 93 q-150 0 -240.5 -110t-90.5 -314v-194zM506 321q83 -96 231 -96q152 0 242.5 106t90.5 310v194q0 92 -23 154z" />
<glyph unicode="&#xd9;" horiz-adv-x="1488" d="M137 516v970h315v-939q0 -98 36 -168.5t102 -105t155 -34.5q133 0 212 81.5t79 226.5v939h317v-972q0 -246 -165.5 -394.5t-442.5 -148.5t-442.5 150t-165.5 395zM312 1871h302l285 -233h-256z" />
<glyph unicode="&#xda;" horiz-adv-x="1488" d="M137 516v970h315v-939q0 -98 36 -168.5t102 -105t155 -34.5q133 0 212 81.5t79 226.5v939h317v-972q0 -246 -165.5 -394.5t-442.5 -148.5t-442.5 150t-165.5 395zM568 1638l294 241h316l-343 -241h-267z" />
<glyph unicode="&#xdb;" horiz-adv-x="1488" d="M137 516v970h315v-939q0 -98 36 -168.5t102 -105t155 -34.5q133 0 212 81.5t79 226.5v939h317v-972q0 -246 -165.5 -394.5t-442.5 -148.5t-442.5 150t-165.5 395zM352 1628l293 266h208l285 -266h-239l-146 139h-14l-148 -139h-239z" />
<glyph unicode="&#xdc;" horiz-adv-x="1488" d="M137 516v970h315v-939q0 -98 36 -168.5t102 -105t155 -34.5q133 0 212 81.5t79 226.5v939h317v-972q0 -246 -165.5 -394.5t-442.5 -148.5t-442.5 150t-165.5 395zM441 1721q0 35 15.5 62.5t43 42t64.5 14.5q56 0 89.5 -32.5t33.5 -86.5q0 -52 -33.5 -85t-89.5 -33 q-54 0 -88.5 33t-34.5 85zM833 1721q0 54 32 86.5t88 32.5t89.5 -32.5t33.5 -86.5q0 -52 -33.5 -85t-89.5 -33t-88 33t-32 85z" />
<glyph unicode="&#xdd;" horiz-adv-x="1265" d="M-21 1486h348l306 -624h10l308 624h337l-497 -928v-558h-314v549zM458 1638l293 241h317l-344 -241h-266z" />
<glyph unicode="&#xde;" horiz-adv-x="1311" d="M154 0v1486h312v-243h281q239 0 374.5 -132.5t135.5 -348.5q0 -142 -59.5 -249t-176 -166.5t-276.5 -59.5h-277v-287h-314zM466 529h192q133 0 206 52t73 181q0 117 -67 175t-187 58h-217v-466z" />
<glyph unicode="&#xdf;" horiz-adv-x="1440" d="M148 0v1141q0 210 152 321t387 114q241 0 387 -110.5t146 -285.5q0 -146 -80.5 -237.5t-175.5 -107.5v-19q158 -2 275.5 -105t117.5 -288q0 -142 -75 -245t-193.5 -150t-266.5 -47q-125 0 -196 21v242q54 -21 146 -21q77 0 136.5 21.5t98 71.5t38.5 123q0 71 -41.5 122 t-109.5 76t-155 25h-88v254h52q85 0 151 59t66 153q0 89 -59.5 145.5t-167.5 56.5q-237 0 -237 -252v-1078h-308z" />
<glyph unicode="&#xe0;" horiz-adv-x="1202" d="M79 333q0 160 107 253t305 93h279v112q0 154 -177 154q-85 0 -131 -38.5t-52 -107.5h-287q2 77 29 141.5t80 118.5t146.5 85.5t220.5 31.5q219 0 347 -94.5t128 -298.5v-783h-289v146h-13q-23 -46 -61.5 -80.5t-104 -58.5t-146.5 -24q-171 0 -276 94t-105 256zM239 1655 h308l236 -317h-259zM383 356q0 -73 52 -113.5t127 -40.5q87 0 147.5 52t60.5 131v115h-206q-87 0 -134 -40t-47 -104z" />
<glyph unicode="&#xe1;" horiz-adv-x="1202" d="M79 333q0 160 107 253t305 93h279v112q0 154 -177 154q-85 0 -131 -38.5t-52 -107.5h-287q2 77 29 141.5t80 118.5t146.5 85.5t220.5 31.5q219 0 347 -94.5t128 -298.5v-783h-289v146h-13q-23 -46 -61.5 -80.5t-104 -58.5t-146.5 -24q-171 0 -276 94t-105 256zM383 356 q0 -73 52 -113.5t127 -40.5q87 0 147.5 52t60.5 131v115h-206q-87 0 -134 -40t-47 -104zM464 1334l227 321h308l-277 -321h-258z" />
<glyph unicode="&#xe2;" horiz-adv-x="1202" d="M79 333q0 160 107 253t305 93h279v112q0 154 -177 154q-85 0 -131 -38.5t-52 -107.5h-287q2 77 29 141.5t80 118.5t146.5 85.5t220.5 31.5q219 0 347 -94.5t128 -298.5v-783h-289v146h-13q-23 -46 -61.5 -80.5t-104 -58.5t-146.5 -24q-171 0 -276 94t-105 256zM237 1334 l250 335h219l239 -335h-235l-111 192h-10l-123 -192h-229zM383 356q0 -73 52 -113.5t127 -40.5q87 0 147.5 52t60.5 131v115h-206q-87 0 -134 -40t-47 -104z" />
<glyph unicode="&#xe3;" horiz-adv-x="1202" d="M79 333q0 160 107 253t305 93h279v112q0 154 -177 154q-85 0 -131 -38.5t-52 -107.5h-287q2 77 29 141.5t80 118.5t146.5 85.5t220.5 31.5q219 0 347 -94.5t128 -298.5v-783h-289v146h-13q-23 -46 -61.5 -80.5t-104 -58.5t-146.5 -24q-171 0 -276 94t-105 256zM219 1295 q0 129 60 216t177 87q50 0 89.5 -19.5t83.5 -63.5q4 -4 14.5 -13.5t14.5 -13.5t13.5 -11.5t15.5 -10.5t15.5 -6t19.5 -3q37 0 55 36.5t20 86.5h175q0 -123 -67.5 -213.5t-176.5 -90.5q-91 0 -164 73q-50 52 -92 52q-75 0 -79 -106h-174zM383 356q0 -73 52 -113.5t127 -40.5 q87 0 147.5 52t60.5 131v115h-206q-87 0 -134 -40t-47 -104z" />
<glyph unicode="&#xe4;" horiz-adv-x="1202" d="M79 333q0 160 107 253t305 93h279v112q0 154 -177 154q-85 0 -131 -38.5t-52 -107.5h-287q2 77 29 141.5t80 118.5t146.5 85.5t220.5 31.5q219 0 347 -94.5t128 -298.5v-783h-289v146h-13q-23 -46 -61.5 -80.5t-104 -58.5t-146.5 -24q-171 0 -276 94t-105 256zM250 1411 q0 40 16.5 69t46.5 45.5t72 16.5q60 0 97.5 -36.5t37.5 -94.5t-37.5 -94.5t-97.5 -36.5t-97.5 36.5t-37.5 94.5zM383 356q0 -73 52 -113.5t127 -40.5q87 0 147.5 52t60.5 131v115h-206q-87 0 -134 -40t-47 -104zM689 1411q0 58 36.5 94.5t96.5 36.5q62 0 99.5 -36.5 t37.5 -94.5t-37 -94.5t-100 -36.5q-58 0 -95.5 36.5t-37.5 94.5z" />
<glyph unicode="&#xe5;" horiz-adv-x="1202" d="M79 333q0 160 107 253t305 93h279v112q0 154 -177 154q-85 0 -131 -38.5t-52 -107.5h-287q2 77 29 141.5t80 118.5t146.5 85.5t220.5 31.5q219 0 347 -94.5t128 -298.5v-783h-289v146h-13q-23 -46 -61.5 -80.5t-104 -58.5t-146.5 -24q-171 0 -276 94t-105 256zM360 1518 q0 101 67.5 165.5t169.5 64.5q50 0 94 -16.5t76 -46.5t50 -73t18 -93q0 -102 -68 -166.5t-170 -64.5t-169.5 64.5t-67.5 165.5zM383 356q0 -73 52 -113.5t127 -40.5q87 0 147.5 52t60.5 131v115h-206q-87 0 -134 -40t-47 -104zM497 1517.5q0 -43.5 28.5 -72t71 -28.5 t71.5 28.5t29 72t-29 72.5t-71.5 29t-71 -29t-28.5 -72.5z" />
<glyph unicode="&#xe6;" horiz-adv-x="1904" d="M77 335q0 160 109.5 254t308.5 94h277v102q0 79 -48 119.5t-133 40.5q-81 0 -127 -32.5t-56 -88.5h-287q8 156 125.5 255t350.5 99q75 0 145 -16.5t124 -48t87 -74.5h19q23 31 59.5 57t80 44.5t94.5 28t105 9.5q231 0 371.5 -144.5t140.5 -388.5v-133h-732v-69 q0 -102 65.5 -166.5t169.5 -64.5q83 0 137 35.5t63 91.5h287q-4 -60 -33.5 -119.5t-85.5 -115.5t-151.5 -90.5t-216.5 -34.5q-162 0 -270.5 58.5t-156.5 153.5h-17q-33 -58 -84 -102.5t-133 -77t-180 -32.5q-187 0 -297.5 95t-110.5 261zM379 358q0 -75 54 -115.5t131 -40.5 q85 0 146.5 52t61.5 131v119h-206q-44 0 -80 -11.5t-59 -30.5t-35.5 -46t-12.5 -58zM1091 693h437v17q0 110 -57.5 176.5t-157.5 66.5q-96 0 -159 -66.5t-63 -170.5v-23z" />
<glyph unicode="&#xe7;" horiz-adv-x="1167" d="M85 533v102q0 244 139.5 393.5t383.5 149.5q221 0 352 -118.5t133 -297.5h-281q-6 71 -58.5 124t-137.5 53q-108 0 -165.5 -85.5t-57.5 -222.5v-96q0 -144 59.5 -228t163.5 -84q94 0 141.5 45.5t58.5 118.5h281q-4 -167 -112.5 -274t-287.5 -128l-43 -102 q96 0 149.5 -47.5t53.5 -135.5q0 -71 -35 -119.5t-94.5 -70.5t-140.5 -24q-100 -2 -158 17v137q48 -15 120 -15q119 0 119 65q0 27 -15.5 41.5t-42.5 18.5t-77 4h-58v115l47 116q-206 23 -321.5 169t-115.5 379z" />
<glyph unicode="&#xe8;" horiz-adv-x="1202" d="M85 533v89q0 173 64.5 300t182.5 191.5t274 64.5q244 0 380 -150t136 -404v-110h-737v-37q0 -114 62.5 -189.5t172.5 -75.5q89 0 143.5 40.5t62.5 103.5h287q-6 -65 -36 -127t-85 -120.5t-152 -94t-220 -35.5q-167 0 -287.5 64.5t-184 189.5t-63.5 300zM239 1655h308 l236 -317h-256zM385 701h443v2q0 110 -59 180t-161 70t-162.5 -69.5t-60.5 -180.5v-2z" />
<glyph unicode="&#xe9;" horiz-adv-x="1202" d="M85 533v89q0 173 64.5 300t182.5 191.5t274 64.5q244 0 380 -150t136 -404v-110h-737v-37q0 -114 62.5 -189.5t172.5 -75.5q89 0 143.5 40.5t62.5 103.5h287q-6 -65 -36 -127t-85 -120.5t-152 -94t-220 -35.5q-167 0 -287.5 64.5t-184 189.5t-63.5 300zM385 701h443v2 q0 110 -59 180t-161 70t-162.5 -69.5t-60.5 -180.5v-2zM466 1334l225 321h308l-277 -321h-256z" />
<glyph unicode="&#xea;" horiz-adv-x="1202" d="M85 533v89q0 173 64.5 300t182.5 191.5t274 64.5q244 0 380 -150t136 -404v-110h-737v-37q0 -114 62.5 -189.5t172.5 -75.5q89 0 143.5 40.5t62.5 103.5h287q-6 -65 -36 -127t-85 -120.5t-152 -94t-220 -35.5q-167 0 -287.5 64.5t-184 189.5t-63.5 300zM237 1334l250 335 h219l239 -335h-235l-111 192h-8l-125 -192h-229zM385 701h443v2q0 110 -59 180t-161 70t-162.5 -69.5t-60.5 -180.5v-2z" />
<glyph unicode="&#xeb;" horiz-adv-x="1202" d="M85 533v89q0 173 64.5 300t182.5 191.5t274 64.5q244 0 380 -150t136 -404v-110h-737v-37q0 -114 62.5 -189.5t172.5 -75.5q89 0 143.5 40.5t62.5 103.5h287q-6 -65 -36 -127t-85 -120.5t-152 -94t-220 -35.5q-167 0 -287.5 64.5t-184 189.5t-63.5 300zM250 1411 q0 58 37.5 94.5t97.5 36.5q62 0 99.5 -36.5t37.5 -94.5t-37.5 -94.5t-99.5 -36.5q-60 0 -97.5 36.5t-37.5 94.5zM385 701h443v2q0 110 -59 180t-161 70t-162.5 -69.5t-60.5 -180.5v-2zM691 1411q0 58 36.5 94.5t96.5 36.5q62 0 98.5 -36.5t36.5 -94.5t-36 -94.5t-99 -36.5 q-60 0 -96.5 36.5t-36.5 94.5z" />
<glyph unicode="&#xec;" horiz-adv-x="620" d="M-46 1655h308l235 -317h-258zM160 0v1159h315v-1159h-315z" />
<glyph unicode="&#xed;" horiz-adv-x="620" d="M160 0v1159h315v-1159h-315zM179 1334l227 321h308l-277 -321h-258z" />
<glyph unicode="&#xee;" horiz-adv-x="620" d="M-50 1334l252 335h218l238 -335h-235l-109 192h-10l-123 -192h-231zM160 0v1159h315v-1159h-315z" />
<glyph unicode="&#xef;" horiz-adv-x="620" d="M-35 1411q0 58 36 94.5t99 36.5q60 0 97.5 -36.5t37.5 -94.5t-37.5 -94.5t-97.5 -36.5t-97.5 36.5t-37.5 94.5zM160 0v1159h315v-1159h-315zM404 1411q0 58 36.5 94.5t96.5 36.5q62 0 99.5 -36.5t37.5 -94.5q0 -19 -4 -36.5t-12.5 -32t-21 -26t-27 -20t-33 -12.5 t-39.5 -4q-60 0 -96.5 36.5t-36.5 94.5z" />
<glyph unicode="&#xf0;" horiz-adv-x="1240" d="M85 522v65q0 244 127 390.5t340 146.5q167 0 253 -100h13l-5 27t-8 31q-33 119 -141 244l-300 -117l-56 144l239 91q-92 83 -233 184l300 54q100 -50 189 -136l256 100l61 -139l-196 -75q233 -277 233 -660v-239q0 -260 -144.5 -407t-392.5 -147q-246 0 -390.5 142.5 t-144.5 400.5zM387 520q0 -142 63.5 -220.5t171.5 -78.5t170.5 79t62.5 220v79q0 142 -62.5 217t-170.5 75q-106 0 -170.5 -80t-64.5 -218v-73z" />
<glyph unicode="&#xf1;" horiz-adv-x="1309" d="M137 0v1159h298v-172h15q31 75 117.5 132t215.5 57q179 0 287 -108.5t108 -305.5v-762h-304v672q0 52 -11.5 94t-29 70t-44.5 46.5t-58.5 26t-68.5 7.5q-67 0 -116 -27t-76 -84.5t-27 -138.5v-666h-306zM273 1295q0 129 60 216t177 87q52 0 90.5 -19.5t82.5 -63.5 q4 -4 14.5 -13.5t14.5 -13.5t13.5 -11.5t15.5 -10.5t15.5 -6t19.5 -3q37 0 56 36.5t21 86.5h173q0 -79 -29 -148t-85.5 -112.5t-128.5 -43.5q-92 0 -163 73q-52 52 -93 52q-75 0 -80 -106h-174z" />
<glyph unicode="&#xf2;" horiz-adv-x="1240" d="M85 543v77q0 250 139.5 404t397.5 154t396.5 -152t138.5 -406v-75q0 -266 -137.5 -416t-397.5 -150t-398.5 149t-138.5 415zM258 1655h308l235 -317h-256zM393 543q0 -52 6.5 -96.5t23 -88.5t41.5 -75t65.5 -50t92.5 -19q225 0 225 329v73q0 329 -225 329 q-65 0 -110.5 -27t-70.5 -75t-36.5 -104t-11.5 -123v-73z" />
<glyph unicode="&#xf3;" horiz-adv-x="1240" d="M85 543v77q0 250 139.5 404t397.5 154t396.5 -152t138.5 -406v-75q0 -266 -137.5 -416t-397.5 -150t-398.5 149t-138.5 415zM393 543q0 -52 6.5 -96.5t23 -88.5t41.5 -75t65.5 -50t92.5 -19q225 0 225 329v73q0 329 -225 329q-65 0 -110.5 -27t-70.5 -75t-36.5 -104 t-11.5 -123v-73zM485 1334l225 321h308l-277 -321h-256z" />
<glyph unicode="&#xf4;" horiz-adv-x="1240" d="M85 543v77q0 250 139.5 404t397.5 154t396.5 -152t138.5 -406v-75q0 -266 -137.5 -416t-397.5 -150t-398.5 149t-138.5 415zM256 1334l250 335h218l240 -335h-236l-110 192h-10l-123 -192h-229zM393 543q0 -52 6.5 -96.5t23 -88.5t41.5 -75t65.5 -50t92.5 -19 q225 0 225 329v73q0 329 -225 329q-65 0 -110.5 -27t-70.5 -75t-36.5 -104t-11.5 -123v-73z" />
<glyph unicode="&#xf5;" horiz-adv-x="1240" d="M85 543v77q0 250 139.5 404t397.5 154t396.5 -152t138.5 -406v-75q0 -266 -137.5 -416t-397.5 -150t-398.5 149t-138.5 415zM239 1295q0 129 59.5 216t176.5 87q35 0 65 -10t55 -27t54 -46l13.5 -13.5t14 -13.5t13.5 -11.5t16.5 -10.5t17 -6t17.5 -3q37 0 56 36.5 t21 86.5h173q0 -79 -29.5 -148t-85.5 -112.5t-129 -43.5q-91 0 -162 73q-52 52 -94 52q-75 0 -79 -106h-173zM393 543q0 -52 6.5 -96.5t23 -88.5t41.5 -75t65.5 -50t92.5 -19q225 0 225 329v73q0 329 -225 329q-65 0 -110.5 -27t-70.5 -75t-36.5 -104t-11.5 -123v-73z" />
<glyph unicode="&#xf6;" horiz-adv-x="1240" d="M85 543v77q0 250 139.5 404t397.5 154t396.5 -152t138.5 -406v-75q0 -266 -137.5 -416t-397.5 -150t-398.5 149t-138.5 415zM268 1411q0 58 37.5 94.5t98.5 36.5q62 0 98.5 -36.5t36.5 -94.5t-36.5 -94.5t-98.5 -36.5q-60 0 -98 36.5t-38 94.5zM393 543q0 -52 6.5 -96.5 t23 -88.5t41.5 -75t65.5 -50t92.5 -19q225 0 225 329v73q0 329 -225 329q-65 0 -110.5 -27t-70.5 -75t-36.5 -104t-11.5 -123v-73zM710 1411q0 58 36.5 94.5t96.5 36.5q42 0 72 -16.5t46.5 -45.5t16.5 -69q0 -58 -36.5 -94.5t-98.5 -36.5q-60 0 -96.5 36.5t-36.5 94.5z" />
<glyph unicode="&#xf7;" d="M119 514v225h1053v-225h-1053zM462 1076q0 75 51 123t126 48q48 0 88.5 -22t64.5 -60.5t24 -88.5q0 -75 -51 -122t-126 -47q-50 0 -89.5 21t-63.5 59.5t-24 88.5zM468 181q0 75 51 123t126 48t126 -48t51 -123t-51 -122t-126 -47t-126 47t-51 122z" />
<glyph unicode="&#xf8;" horiz-adv-x="1240" d="M69 27l120 148q-104 137 -104 347v119q0 241 147 389t390 148q183 0 317 -89l112 133l121 -98l-119 -146q104 -139 104 -335v-121q0 -256 -144.5 -399.5t-390.5 -143.5q-189 0 -322 90l-115 -138zM387 506q0 -58 19 -102l374 481q-60 71 -158 70q-114 0 -174.5 -89.5 t-60.5 -224.5v-135zM462 279q60 -71 160 -71q117 0 175 89.5t58 224.5v134q0 54 -18 97z" />
<glyph unicode="&#xf9;" horiz-adv-x="1307" d="M131 393v766h306v-684q0 -127 59.5 -180.5t150.5 -53.5q96 0 156.5 61.5t60.5 176.5v680h306v-1159h-298v173h-15q-29 -77 -114 -133.5t-219 -56.5q-89 0 -161 26t-124 76t-80 129t-28 179zM291 1655h308l236 -317h-258z" />
<glyph unicode="&#xfa;" horiz-adv-x="1307" d="M131 393v766h306v-684q0 -127 59.5 -180.5t150.5 -53.5q96 0 156.5 61.5t60.5 176.5v680h306v-1159h-298v173h-15q-29 -77 -114 -133.5t-219 -56.5q-89 0 -161 26t-124 76t-80 129t-28 179zM516 1334l227 321h308l-277 -321h-258z" />
<glyph unicode="&#xfb;" horiz-adv-x="1307" d="M131 393v766h306v-684q0 -127 59.5 -180.5t150.5 -53.5q96 0 156.5 61.5t60.5 176.5v680h306v-1159h-298v173h-15q-29 -77 -114 -133.5t-219 -56.5q-89 0 -161 26t-124 76t-80 129t-28 179zM289 1334l250 335h219l239 -335h-235l-111 192h-10l-123 -192h-229z" />
<glyph unicode="&#xfc;" horiz-adv-x="1307" d="M131 393v766h306v-684q0 -127 59.5 -180.5t150.5 -53.5q96 0 156.5 61.5t60.5 176.5v680h306v-1159h-298v173h-15q-29 -77 -114 -133.5t-219 -56.5q-89 0 -161 26t-124 76t-80 129t-28 179zM302 1411q0 58 36.5 94.5t98.5 36.5q60 0 97.5 -36.5t37.5 -94.5t-37.5 -94.5 t-97.5 -36.5t-97.5 36.5t-37.5 94.5zM741 1411q0 58 37.5 94.5t97.5 36.5q62 0 99 -36.5t37 -94.5t-37.5 -94.5t-98.5 -36.5q-42 0 -72 16.5t-46.5 45.5t-16.5 69z" />
<glyph unicode="&#xfd;" horiz-adv-x="1194" d="M21 1159h337l233 -901h13l239 901h325q-368 -1105 -373 -1119l-29 -80q-33 -87 -70.5 -148.5t-94 -114.5t-139.5 -80t-194 -27q-106 0 -166 12v219q35 -8 96 -8q102 0 148.5 37.5t59.5 112.5l10 37zM462 1334l225 321h308l-277 -321h-256z" />
<glyph unicode="&#xfe;" horiz-adv-x="1307" d="M137 -383v1948h302l2 -591h15q23 58 66.5 102t113.5 70t155 26q198 0 313.5 -135.5t115.5 -382.5v-148q0 -248 -115.5 -384.5t-315.5 -136.5q-127 0 -210.5 53.5t-118.5 140.5h-15v-562h-308zM445 504q0 -127 64.5 -202t169 -75t165.5 77t61 227v95q0 150 -60 227 t-169 77q-71 0 -122.5 -33t-80 -98.5t-28.5 -155.5v-139z" />
<glyph unicode="&#xff;" horiz-adv-x="1194" d="M21 1159h337l233 -901h13l239 901h325q-368 -1105 -373 -1119l-29 -80q-33 -87 -70.5 -148.5t-94 -114.5t-139.5 -80t-194 -27q-106 0 -166 12v219q35 -8 96 -8q102 0 148.5 37.5t59.5 112.5l10 37zM246 1411q0 58 37.5 94.5t97.5 36.5q62 0 98.5 -36.5t36.5 -94.5 t-36.5 -94.5t-98.5 -36.5q-60 0 -97.5 36.5t-37.5 94.5zM687 1411q0 58 36.5 94.5t96.5 36.5q42 0 72 -16.5t46.5 -45.5t16.5 -69q0 -58 -36.5 -94.5t-98.5 -36.5q-60 0 -96.5 36.5t-36.5 94.5z" />
<glyph unicode="&#x152;" horiz-adv-x="2139" d="M94 647v183q0 325 164.5 505t434.5 180q133 0 237 -46.5t161 -136.5h18v154h922v-254h-653v-362h614v-237h-614v-379h653v-254h-922v158h-18q-56 -87 -160.5 -137t-239.5 -50q-183 0 -318.5 82t-207 235t-71.5 359zM425 643q0 -135 42.5 -228.5t114.5 -138.5t167 -45 q150 0 238.5 102t88.5 302v210q0 135 -41.5 229t-114.5 137.5t-171 43.5q-146 0 -235 -109t-89 -311v-192z" />
<glyph unicode="&#x153;" horiz-adv-x="1977" d="M85 522v119q0 241 147 389t390 148q119 0 220 -43.5t155 -120.5h19q50 75 148.5 119.5t213.5 44.5q231 0 374.5 -144.5t143.5 -388.5v-133h-739v-52q0 -54 17 -101t48 -79t74.5 -50t93.5 -18q85 0 142.5 35.5t65.5 91.5h288q-4 -60 -35.5 -119.5t-87.5 -115.5t-153 -90.5 t-216 -34.5q-123 0 -223.5 44t-154.5 114h-19q-54 -71 -156 -114.5t-219 -43.5q-248 0 -392.5 142.5t-144.5 400.5zM393 522q0 -133 57.5 -220.5t171.5 -87.5q75 0 127 44t75 110.5t23 153.5v117q0 133 -57.5 219.5t-167.5 86.5t-169.5 -87.5t-59.5 -218.5v-117zM1157 693 h441v10q0 112 -59 181t-159 69t-161.5 -68.5t-61.5 -181.5v-10z" />
<glyph unicode="&#x178;" horiz-adv-x="1265" d="M-21 1486h348l306 -624h10l308 624h337l-497 -928v-558h-314v549zM331 1721q0 54 33.5 86.5t89.5 32.5q54 0 87 -32.5t33 -86.5q0 -35 -14.5 -61t-42.5 -41.5t-63 -15.5q-56 0 -89.5 33t-33.5 85zM720 1721q0 54 33.5 86.5t87.5 32.5q56 0 89.5 -32.5t33.5 -86.5 q0 -52 -32.5 -85t-90.5 -33q-54 0 -87.5 33t-33.5 85z" />
<glyph unicode="&#x2c6;" horiz-adv-x="1030" d="M187 1320l250 337h219l239 -337h-235l-111 191h-10l-123 -191h-229z" />
<glyph unicode="&#x2dc;" horiz-adv-x="1030" d="M106 1353q0 127 60.5 215.5t176.5 88.5q35 0 65.5 -10.5t54.5 -28t53 -47.5q4 -2 14.5 -12.5l14.5 -14.5t13.5 -11t16 -10.5t15.5 -5.5t20 -2q37 0 56 36.5t21 84.5h173q0 -123 -68 -213.5t-176 -90.5q-91 0 -162 73q-52 52 -94 52q-75 0 -79 -104h-175z" />
<glyph unicode="&#x2000;" horiz-adv-x="947" />
<glyph unicode="&#x2001;" horiz-adv-x="1894" />
<glyph unicode="&#x2002;" horiz-adv-x="947" />
<glyph unicode="&#x2003;" horiz-adv-x="1894" />
<glyph unicode="&#x2004;" horiz-adv-x="631" />
<glyph unicode="&#x2005;" horiz-adv-x="473" />
<glyph unicode="&#x2006;" horiz-adv-x="315" />
<glyph unicode="&#x2007;" horiz-adv-x="315" />
<glyph unicode="&#x2008;" horiz-adv-x="236" />
<glyph unicode="&#x2009;" horiz-adv-x="378" />
<glyph unicode="&#x200a;" horiz-adv-x="105" />
<glyph unicode="&#x2010;" horiz-adv-x="857" d="M85 475v270h687v-270h-687z" />
<glyph unicode="&#x2011;" horiz-adv-x="857" d="M85 475v270h687v-270h-687z" />
<glyph unicode="&#x2012;" horiz-adv-x="857" d="M85 475v270h687v-270h-687z" />
<glyph unicode="&#x2013;" horiz-adv-x="1309" d="M0 475v270h1311v-270h-1311z" />
<glyph unicode="&#x2014;" horiz-adv-x="2229" d="M0 475v270h2229v-270h-2229z" />
<glyph unicode="&#x2018;" horiz-adv-x="628" d="M108 843l165 643h249l-97 -643h-317z" />
<glyph unicode="&#x2019;" horiz-adv-x="630" d="M108 843l98 643h316l-162 -643h-252z" />
<glyph unicode="&#x201a;" horiz-adv-x="630" d="M108 -531l98 645h316l-162 -645h-252z" />
<glyph unicode="&#x201c;" horiz-adv-x="1161" d="M108 843l131 643h261l-77 -643h-315zM666 843l129 643h258l-71 -643h-316z" />
<glyph unicode="&#x201d;" horiz-adv-x="1161" d="M108 843l73 643h316l-131 -643h-258zM664 843l75 643h314l-129 -643h-260z" />
<glyph unicode="&#x201e;" horiz-adv-x="1161" d="M108 -529l73 646h316l-131 -646h-258zM664 -529l75 646h314l-129 -646h-260z" />
<glyph unicode="&#x2022;" horiz-adv-x="1011" d="M148 668q0 148 105 254t255 106q98 0 180 -48t131 -131t49 -181t-49 -180t-131 -131t-180 -49q-150 0 -255 106t-105 254z" />
<glyph unicode="&#x2026;" horiz-adv-x="1754" d="M114 154q0 81 53.5 131t132.5 50t132 -50t53 -131q0 -79 -53 -127t-132 -48t-132.5 48t-53.5 127zM687 154q0 81 53 131t130 50q81 0 134 -50t53 -131q0 -79 -53 -127t-134 -48q-77 0 -130 48t-53 127zM1259 154q0 81 53 131t132 50t132.5 -50t53.5 -131q0 -79 -53 -127 t-133 -48q-79 0 -132 48t-53 127z" />
<glyph unicode="&#x202f;" horiz-adv-x="378" />
<glyph unicode="&#x2039;" horiz-adv-x="869" d="M100 606v10l375 439h283l-371 -439v-6l371 -441h-294z" />
<glyph unicode="&#x203a;" horiz-adv-x="869" d="M106 169l369 441v6l-369 439h283l375 -439v-10l-366 -437h-292z" />
<glyph unicode="&#x205f;" horiz-adv-x="473" />
<glyph unicode="&#x20ac;" d="M29 502v164h125v146h-125v164h133q54 539 560 539q266 0 399.5 -153t133.5 -407h-302q0 62 -9 111.5t-33 93t-71 67.5t-116 24q-114 0 -173.5 -66.5t-67.5 -208.5h283v-164h-291v-146h291v-164h-283q8 -142 65.5 -203.5t175.5 -61.5q48 0 84.5 9.5t60.5 28t40.5 43.5 t26 58.5t13.5 67t4 72.5h302q0 -117 -31 -213.5t-93.5 -171.5t-166.5 -117.5t-242 -42.5q-262 0 -398.5 132t-161.5 399h-133z" />
<glyph unicode="&#x2122;" horiz-adv-x="1935" d="M62 1309v177h691v-177h-243v-574h-206v574h-242zM930 735v751h233l206 -412h11l206 412h231v-751h-183v480h-11l-199 -403h-100l-200 403h-8v-480h-186z" />
<glyph unicode="&#x25fc;" horiz-adv-x="1155" d="M0 0v1155h1155v-1155h-1155z" />
<glyph unicode="&#xfb01;" horiz-adv-x="1517" d="M56 910v235h173v114q0 175 94.5 252t302.5 77q58 0 132 -8v-215q-23 4 -71 4q-83 0 -121.5 -31t-38.5 -104v-89h220v-235h-214v-910h-304v910h-173zM1032 1451q0 44 21 77t61.5 53t92.5 20q81 0 129 -42t48 -108q0 -69 -48 -110.5t-129 -41.5q-79 0 -127 42.5t-48 109.5z M1055 0v1159h306v-1159h-306z" />
<glyph unicode="&#xfb02;" horiz-adv-x="1500" d="M56 910v235h173v114q0 175 94.5 252t302.5 77q58 0 132 -8v-215q-23 4 -71 4q-83 0 -121.5 -31t-38.5 -104v-89h220v-235h-214v-910h-304v910h-173zM1051 0v1565h306v-1565h-306z" />
</font>
</defs>
</svg>
